<?xml version="1.0" encoding="UTF-8"?>
<svg height="109.77" viewBox="0,0,109.843,109.772" width="109.84" xmlns="http://www.w3.org/2000/svg">
 <metadata/>
 <path d="m40.5292 108.399c-18.854-5.17675-34.0831-20.547-39.1228-39.4855-1.87527-7.04707-1.87527-20.9378 0-27.9849 5.06824-19.0459 20.4764-34.454 39.5223-39.5223 7.03281-1.87148 20.9335-1.87643 27.9471-.01 19.3224 5.14212 34.4279 20.2476 39.57 39.57 1.86646 7.01357 1.86151 20.9143-.01 27.9471-5.06823 19.0459-20.4763 34.454-39.5222 39.5223-6.75167 1.79666-21.7779 1.77723-28.3844-.0367zm27.8504-3.00917c8.65777-2.25506 16.6893-6.93652 23.3816-13.6288 20.4374-20.4374 20.4374-53.2426 0-73.68-20.4374-20.4374-53.2426-20.4374-73.68 0-16.3303 16.3303-19.9762 41.3954-9.01308 61.9643 6.12267 11.4873 19.2504 21.8757 31.9654 25.2952 7.1516 1.92331 20.0621 1.94661 27.3461.0494zm-26.3538-3.98872c-16.9159-4.74525-30.6421-19.3137-34.1642-36.2606-1.60086-7.70283-.67195-20.3383 2.01759-27.4442 4.59943-12.152 15.4439-23.0099 27.9228-27.9572 8.13079-3.2235 26.1076-3.2235 34.2384 0 12.4138 4.92152 23.1369 15.6194 28.0232 27.9572 3.26361 8.24053 3.28422 26.1596.0395 34.344-4.88678 12.3262-15.8984 23.3367-27.9389 27.9361-7.53241 2.87735-22.4468 3.58241-30.1384 1.42476z" fill="#7bba00"/>
 <path d="m19.198 65.0045c3.80204-10.0045 8.18042-21.797 11.802-30.0045 1.29472 0 1.59825 0 3.05029-.04444 4.80816 10.98 6.94971 17.0444 11.5716 30.0444h-4.62188c-1.2167-2.49202-2.34835-5.48819-3.43777-8h-10.7227c-1.38395 3-2.37861 5.93554-3.09558 8-1.74398 0-2.33425 0-4.54602.00446zm17.4914-12.0839c-2.21984-6.20158-2.68938-7.48741-4.18047-10.9206-.50892 1.19868-2.19159 5.29613-4.46852 11.0215 3.57814-.02145 5.95961-.02145 8.64899-.10085z" fill="#fff" stroke-width=".178"/>
 <path d="m49 35c1.5502-.0324 3.46085 0 5 0v30h-5c.03048-10.416-.02609-21.0859 0-30z" fill="#fff" stroke-width=".173"/>
 <path d="m79.7984 65.1035c-3.49246-5.08856-4.6123-7.09583-8.08424-12.1035-2.71412 4.6967-5.48702 8.94743-7.2828 12.1424-2.10957.03494-4.38451.04436-6.49522-.0044 3.48391-4.81902 7.06389-9.7247 10.7483-14.6368-3.53826-4.74421-7.12171-9.98491-10.2272-15.5001.23102-.03477 3.18053-.0011 4.54274-.0011 2.59072 4 4.40346 6.62448 8.36621 13 4.4755-5.65861 6.34007-8.18353 10.4966-13.005 1.50452.06925 1.83443.06386 4.05059.06386-3.82152 5.07452-7.30568 9.98714-11.5778 15.3373 2.66437 3.60384 6.19108 8.76488 10.5144 14.7032-1.84333-.05195-3.58964.03937-5.05167.0041z" fill="#fff" stroke-width=".171"/>
 <path d="m51.2558 106.658c-8.13652-.4941-12.6309-1.6436-18.9976-4.85887-10.0969-5.09914-18.6789-13.3134-23.4277-22.424-3.18347-6.10748-5.15249-12.9408-5.77003-20.0244-.26967-3.09329-.10558-8.82014.33607-11.7291 1.4236-9.37665 5.08795-17.8793 10.8034-25.068 1.8545-2.3325 6.10623-6.58708 8.38834-8.39396 11.6537-9.22692 26.3461-13.0205 40.9902-10.5838 18.627 3.09948 34.4367 16.5256 40.5857 34.4667 2.11361 6.16695 2.92148 11.5361 2.75138 18.2859-.20419 8.10294-2.02082 15.2191-5.71977 22.4058-2.44581 4.75199-5.47292 8.8386-9.61613 12.9818-4.3665 4.3665-8.498 7.37026-13.7102 9.96786-5.55649 2.76918-10.2535 4.13621-16.2526 4.73026-1.90847.18897-8.65062.34754-10.361.24367zm9.25735-4.26695c4.8883-.46749 9.02846-1.32276 12.0572-2.49079 3.45238-1.33138 7.94755-3.94337 11.3749-6.60958 8.80842-6.85225 15.7928-17.1401 17.5226-25.8104.81191-4.06963.96154-6.01388.96154-12.4939 0-6.61649-.16256-8.65086-1.02267-12.7986-.58489-2.82056-1.28773-4.78984-2.82323-7.91042-4.39574-8.93342-11.9308-16.8455-20.8549-21.8983-3.88695-2.20081-7.41758-3.51177-11.2405-4.17371-4.07648-.70585-5.46142-.79859-11.8093-.79086-6.57864.00801-8.05895.12906-12.5113 1.02307-2.74165.55052-4.55456 1.20132-7.85548 2.81996-4.94597 2.42532-9.26807 5.56916-13.5208 9.83486-6.08499 6.10357-10.2688 13.0775-12.0643 20.1099-.43755 1.71371-1.12275 5.73344-1.40149 8.22184-.34107 3.04479-.28983 11.0747.08628 13.5208 1.15708 7.52527 4.26665 14.6248 9.3328 21.3081 1.67004 2.2031 6.6358 7.16887 8.83891 8.8389 7.07806 5.36546 14.7348 8.63631 21.9071 9.35843 2.59609.26138 10.0234.2276 13.0226-.0592z" fill="#fff" stroke-width=".171"/>
</svg>
