<?xml version="1.0" standalone="no"?><!DOCTYPE svg PUBLIC "-//W3C//DTD SVG 1.1//EN" "http://www.w3.org/Graphics/SVG/1.1/DTD/svg11.dtd"><svg t="1649577595787" class="icon" viewBox="0 0 1024 1024" version="1.1" xmlns="http://www.w3.org/2000/svg" p-id="5361" xmlns:xlink="http://www.w3.org/1999/xlink" width="200" height="200"><defs><style type="text/css"></style></defs><path d="M94.495936 905.479151c0 42.71196 76.879928 81.151924 202.87981 102.503904a1292.902788 1292.902788 0 0 0 405.751619 0c125.999882-21.35198 202.87981-59.791944 202.87981-102.503904 0-66.199938-181.51983-119.591888-405.751619-119.591888s-405.75162 55.527948-405.75162 119.591888zM26.16 856.359197c0 4.271996 6.399994 8.543992 17.087984 10.67999a91.911914 91.911914 0 0 0 34.167968 0c10.67999-2.135998 17.087984-6.399994 17.087984-10.67999 0-6.399994-14.951986-12.799988-34.167968-12.799988s-34.167968 6.399994-34.167968 12.799988z m886.255169 76.879928c0 6.399994 8.543992 10.67999 21.35198 14.951986a143.199866 143.199866 0 0 0 42.71196 0c12.799988-2.135998 21.35198-8.543992 21.35198-14.951986s-8.543992-10.67999-21.35198-14.951986a143.199866 143.199866 0 0 0-42.71196 0c-12.807988 2.143998-21.35198 8.543992-21.35198 14.951986z" fill="#ECECEC" opacity=".905" p-id="5362"></path><path d="M451.135602 228.503786c-132.407876-6.399994-234.91178-55.527948-234.91178-113.183894C216.223822 51.255952 335.81571 0 485.29557 0s269.079748 51.255952 269.079747 115.319892c0 57.663946-102.503904 106.7759-237.047777 113.183894l-17.087984 34.167968a14.295987 14.295987 0 0 1-14.943986 8.527992 17.975983 17.975983 0 0 1-14.951986-8.543992l-19.199982-34.167968z m12.799988 100.367906a21.35198 21.35198 0 1 0 21.35998-21.35198 22.879979 22.879979 0 0 0-21.34398 21.35998z" fill="#EDEDED" opacity=".905" p-id="5363"></path><path d="M468.223586 392.927632a18.399983 18.399983 0 0 0 17.087984 17.087984 12.799988 12.799988 0 0 0 8.543992-2.135998 17.175984 17.175984 0 0 0 6.399994-23.487978l-6.399994-6.399994a17.175984 17.175984 0 0 0-23.487978 6.399994 16.143985 16.143985 0 0 0-2.143998 8.535992z" fill="#DBDBDB" opacity=".905" p-id="5364"></path><path d="M472.487582 450.607578a12.799988 12.799988 0 1 0 12.799988-12.799988 11.327989 11.327989 0 0 0-12.799988 12.799988z" fill="#BDBDBD" opacity=".905" p-id="5365"></path><path d="M173.511862 531.751501v369.447654a27.583974 27.583974 0 0 0 19.199982 25.599976l307.519712 70.471934v-416.39961c-177.231834-23.519978-320.3197-49.119954-326.719694-49.119954z" fill="#BABABA" opacity=".905" p-id="5366"></path><path d="M824.863251 540.295493v360.911662a27.583974 27.583974 0 0 1-19.199982 25.599976l-305.383713 70.471934-4.271996-414.295612C716.007353 548.815485 824.879251 535.999498 824.879251 540.271493z" fill="#BABABA" opacity=".905" p-id="5367"></path><path d="M88.095942 674.831367l87.551918-143.079866 324.607696 51.255952-76.879928 164.439846-335.279686-72.607932z" fill="#DEDEDE" opacity=".905" p-id="5368"></path><path d="M498.119558 580.871455l79.015925 164.439846 331.00769-79.015926-81.151924-136.671872-328.871691 51.255952z" fill="#DEDEDE" opacity=".905" p-id="5369"></path><path d="M457.511596 576.599459v-79.015925l-283.999734 34.167967z" fill="#BDBDBD" opacity=".905" p-id="5370"></path><path d="M498.119558 580.879455l331.007689-51.255952-371.583651-34.167967v81.151923l40.575962 4.271996z" fill="#B7B7B7" opacity=".905" p-id="5371"></path><path d="M393.471656 136.679872a16.055985 16.055985 0 0 1-14.951986-10.67999 16.991984 16.991984 0 0 1 4.271996-19.199982 20.487981 20.487981 0 0 1 19.199982-4.271996 16.055985 16.055985 0 0 1 10.67999 14.951986c-2.135998 10.67999-8.543992 19.199982-19.199982 19.199982z m96.10391 0a16.055985 16.055985 0 0 1-14.919986-10.71199 15.895985 15.895985 0 0 1 2.135998-19.199982 20.479981 20.479981 0 0 1 19.199982-4.271996 16.055985 16.055985 0 0 1 10.67999 14.951986 18.823982 18.823982 0 0 1-17.087984 19.199982z m93.967911 0a16.055985 16.055985 0 0 1-14.951986-10.67999 16.999984 16.999984 0 0 1 4.271996-19.199982 20.479981 20.479981 0 0 1 19.199982-4.271996 16.055985 16.055985 0 0 1 10.67999 14.951986 22.535979 22.535979 0 0 1-19.199982 19.199982z" fill="#BEBEBE" opacity=".905" p-id="5372"></path></svg>