<?xml version="1.0" standalone="no"?><!DOCTYPE svg PUBLIC "-//W3C//DTD SVG 1.1//EN" "http://www.w3.org/Graphics/SVG/1.1/DTD/svg11.dtd"><svg t="1653755352595" class="icon" viewBox="0 0 1024 1024" version="1.1" xmlns="http://www.w3.org/2000/svg" p-id="1594" xmlns:xlink="http://www.w3.org/1999/xlink" width="200" height="200"><defs><style type="text/css"></style></defs><path d="M960 448c0 282.784-320 576-448 576S64 730.784 64 448C63.968 165.248 229.216 0 511.968 0S960 165.248 960 448z" fill="#84BD5A" p-id="1595"></path><path d="M825.088 102.88C891.808 178.752 928 284.448 928 416c0 282.784-320 576-448 576-52.256 0-136.512-48.864-217.92-125.984C352.704 961.312 452.832 1024 511.968 1024c128 0 448-293.216 448-576 0.032-151.232-47.616-268.416-134.88-345.12z" fill="#6FA14E" p-id="1596"></path><path d="M275.183887 507.622308a144.83 108.606 44.999 1 0 153.589397-153.594758 144.83 108.606 44.999 1 0-153.589397 153.594758Z" fill="#35495C" p-id="1597"></path><path d="M595.225402 354.027206a108.606 144.83 45.001 1 0 153.589397 153.594759 108.606 144.83 45.001 1 0-153.589397-153.594759Z" fill="#35495C" p-id="1598"></path><path d="M595.2 403.2c56.544-56.544 136.768-68 179.232-25.6 11.68 11.68 18.88 26.368 22.56 42.528 6.976-35.104 0.224-68.864-22.56-91.648-42.432-42.4-122.688-30.944-179.232 25.6-40.96 40.96-57.888 94.24-48.192 136.672 5.984-30.208 22.016-61.408 48.192-87.552zM428.384 403.2c-56.544-56.544-136.768-68-179.2-25.6-11.68 11.68-18.88 26.368-22.592 42.528-6.944-35.104-0.224-68.864 22.592-91.648 42.432-42.4 122.656-30.944 179.2 25.6 40.96 40.96 57.888 94.24 48.192 136.672-6.016-30.208-22.048-61.408-48.192-87.552z" fill="#123247" p-id="1599"></path><path d="M511.968 768m-64 0a64 64 0 1 0 128 0 64 64 0 1 0-128 0Z" fill="#668E46" p-id="1600"></path><path d="M511.968 736c29.792 0 54.624 20.448 61.76 48 1.312-5.12 2.24-10.432 2.24-16 0-35.328-28.672-64-64-64s-64 28.672-64 64c0 5.568 0.928 10.88 2.24 16 7.168-27.552 32-48 61.76-48z" fill="#537038" p-id="1601"></path></svg>