<?xml version="1.0" encoding="UTF-8"?>
<svg width="218px" height="334px" viewBox="0 0 218 334" version="1.1" xmlns="http://www.w3.org/2000/svg" xmlns:xlink="http://www.w3.org/1999/xlink">
    <!-- Generator: Sketch 60.1 (88133) - https://sketch.com -->
    <title>error</title>
    <desc>Created with Sketch.</desc>
    <g id="页面-1" stroke="none" stroke-width="1" fill="none" fill-rule="evenodd">
        <g id="error">
            <g stroke-width="1">
                <g id="FLOOR" transform="translate(0.000000, 272.000000)" fill-rule="nonzero">
                    <g id="XMLID_21_">
                        <g id="XMLID_3_" fill="#99ADF9">
                            <path d="M176.672171,9.6875 C173.768502,16.7916667 154.281651,15.8875 152.023242,21.9583333 C149.764832,28.0291667 169.638838,27.4479167 168.993578,35.06875 C168.348318,42.6895833 156.346483,43.8520833 134.794801,45.0791667 C113.243119,46.30625 108.468196,51.9895833 86.9165138,59.0291667 C65.3648318,66.06875 55.8795107,56.9625 43.8131498,50.375 C31.811315,43.8520833 8.77553517,55.8645833 1.54862385,45.725 C-5.67828746,35.5208333 14.0021407,31.9041667 31.359633,27.9645833 C48.7816514,23.9604167 40.9094801,22.0875 40.4577982,13.6270833 C40.3932722,11.8833333 40.9094801,10.5270833 41.87737,9.42916667 C45.8134557,5.16666667 57.2345566,5.10208333 70.9140673,5.36041667 C88.1425076,5.74791667 92.4657492,-3.63042929e-14 116.469419,0.516666667 C138.601835,0.96875 173.31682,2.325 176.478593,8.07291667 C176.865749,8.58958333 176.930275,9.10625 176.672171,9.6875 Z" id="XMLID_153_"></path>
                        </g>
                        <path d="M210.35474,22.28125 C210.161162,22.66875 209.838532,23.05625 209.451376,23.5083333 C206.676758,26.54375 197.578593,28.4166667 190.287156,28.5458333 C181.253517,28.6104167 171.832722,28.0291667 171.510092,22.5395833 C171.510092,22.5395833 171.510092,22.5395833 171.510092,22.5395833 C171.251988,17.05 194.352294,16.7270833 202.418043,17.63125 C209.38685,18.2770833 211.580734,19.8916667 210.35474,22.28125 Z" id="XMLID_155_" fill="#99ADF9"></path>
                        <path d="M31.811315,21.3770833 C31.682263,21.7 31.424159,22.0229167 31.1015291,22.3458333 C28.9076453,24.7354167 21.7452599,26.2854167 16.0024465,26.35 C8.90458716,26.4145833 1.41957187,25.9625 1.22599388,21.50625 C1.22599388,21.50625 1.22599388,21.50625 1.22599388,21.50625 C1.0324159,17.1145833 19.2287462,16.85625 25.5522936,17.5666667 C31.0370031,18.1479167 32.8437309,19.4395833 31.811315,21.3770833 Z" id="XMLID_325_" fill="#99ADF9"></path>
                        <path d="M147.37737,55.8 C141.053823,58.31875 117.437309,58.4479167 117.501703,55.3479167 C117.501703,54.9604167 117.630887,54.5729167 117.888991,54.25 C119.631193,51.7958333 126.858104,50.4395833 133.375229,50.18125 C141.053823,49.9229167 146.280428,50.7625 148.603364,51.9895833 C150.732722,53.1520833 150.410092,54.5729167 147.37737,55.8 Z" id="XMLID_157_" fill="#99ADF9"></path>
                        <path d="M87.1100917,48.1145833 C81.3027523,50.2458333 62.848318,49.7291667 62.97737,45.91875 C62.97737,45.4666667 63.106422,45.0145833 63.3,44.5625 C64.8486239,41.5916667 69.6880734,40.49375 75.2373089,40.3 C81.6899083,40.0416667 86.9810398,41.075 89.1103976,42.3020833 C91.8204893,43.7875 91.8850153,46.30625 87.1100917,48.1145833 Z" id="XMLID_23_" fill="#7C99F2"></path>
                        <path d="M158.669419,11.8833333 C155.249541,13.5625 142.796024,13.4333333 142.86055,11.2375 C142.86055,10.9791667 142.925076,10.7208333 143.054128,10.4625 C144.022018,8.78333333 147.829052,7.87916667 151.313456,7.75 C155.378593,7.62083333 158.153211,8.26666667 159.314679,9.17083333 C160.476147,10.0104167 160.282569,11.04375 158.669419,11.8833333 Z" id="XMLID_26_" fill="#7C99F2"></path>
                        <path d="M155.314067,35.0041667 C152.53945,36.3604167 142.344343,36.23125 142.408869,34.4875 C142.408869,34.29375 142.473394,34.0354167 142.602446,33.8416667 C143.376758,32.4854167 146.538532,31.7104167 149.377676,31.6458333 C152.733028,31.5166667 154.991437,32.0979167 155.959327,32.8083333 C156.798165,33.51875 156.669113,34.3583333 155.314067,35.0041667 Z" id="XMLID_27_" fill="#7C99F2"></path>
                        <path d="M124.470642,33.90625 C95.175841,41.9791667 51.2336391,28.5458333 51.6207951,20.8604167 C51.6853211,19.8916667 52.0724771,19.0520833 52.782263,18.2770833 C57.8152905,12.7229167 78.3345566,11.1729167 96.9825688,12.2708333 C118.856881,13.6270833 133.633333,17.1145833 140.085933,20.8604167 C145.957798,24.1541667 139.440673,29.7729167 124.470642,33.90625 Z" id="XMLID_25_" fill="#7C99F2"></path>
                        <path d="M50.0721713,36.0375 C47.2975535,37.5875 36.9733945,37.4583333 37.1024465,35.45625 C37.1024465,35.1979167 37.1669725,35.0041667 37.2960245,34.7458333 C38.0703364,33.1958333 41.2321101,32.35625 44.0712538,32.2270833 C47.4266055,32.0979167 49.6850153,32.6791667 50.6529052,33.51875 C51.5562691,34.3583333 51.4272171,35.3270833 50.0721713,36.0375 Z" id="XMLID_24_" fill="#7C99F2"></path>
                    </g>
                </g>
                <g id="SMOKE_2" transform="translate(144.000000, 60.000000)" fill-rule="nonzero">
                    <g id="XMLID_19_">
                        <path d="M0.255319149,22.0776119 C0.255319149,22.0776119 -1.40425532,16.8791045 4.34042553,16.558209 C10.0851064,16.3014925 4.34042553,7.76567164 10.0851064,2.8238806 C15.8297872,-2.11791045 22.6595745,0.0641791045 22.9148936,6.67462687 C23.1702128,13.2850746 22.0851064,17.3925373 22.9148936,19.061194 C23.7446809,20.7298507 26.1702128,16.0447761 29.1702128,19.3179104 C32.1702128,22.5910448 13.5957447,85.8074627 13.5957447,85.8074627 L3.5106383,83.3044776 L0.255319149,22.0776119 Z" id="XMLID_97_" fill="#D2E9FF"></path>
                        <path d="M18.5106383,32.1537313 C15.7659574,33.4373134 10.1489362,71.1746269 14.8085106,67.4522388 C15.893617,66.6179104 25.5319149,28.880597 18.5106383,32.1537313 Z" id="XMLID_18_" fill="#E3F0FF"></path>
                    </g>
                </g>
                <g id="SMOKE_1" transform="translate(115.000000, 0.000000)" fill-rule="nonzero">
                    <g id="XMLID_17_">
                        <path d="M95.6778523,51.3103448 C95.4201342,53.1062069 94.9691275,54.7737931 94.5181208,56.2489655 C90.0080537,69.8462069 77.7020134,70.3593103 77.5087248,72.2193103 C77.3154362,74.2717241 86.4,81.0703448 77.895302,89.3441379 C69.390604,97.617931 52.0590604,87.0993103 47.4845638,86.7144828 C41.0416107,86.2013793 27.6402685,97.617931 18.4268456,85.7524138 C12.4993289,78.12 22.0348993,73.8227586 19.8442953,71.7062069 C17.6536913,69.5896552 0.515436242,69.2048276 0.515436242,50.0275862 C0.515436242,49.6427586 0.515436242,49.257931 0.515436242,48.8731034 C1.15973154,29.6958621 18.2979866,31.0427586 19.1355705,27.2586207 C19.9731544,23.4744828 19.7798658,1.28275862 46.8402685,0.320689655 C73.9651007,-0.64137931 73.1275168,26.6813793 75.5758389,27.9641379 C78.1530201,29.3110345 98.5771812,32.8386207 95.6778523,51.3103448 Z" id="XMLID_151_" fill="#E3F0FF"></path>
                        <path d="M74.1583893,67.2806897 C79.957047,64.9075862 88.6550336,60.6744828 94.4536913,56.2489655 C89.9436242,69.8462069 77.6375839,70.3593103 77.4442953,72.2193103 C77.2510067,74.2717241 86.3355705,81.0703448 77.8308725,89.3441379 C69.3261745,97.617931 51.9946309,87.0993103 47.4201342,86.7144828 C40.9771812,86.2013793 27.5758389,97.617931 18.3624161,85.7524138 C12.4348993,78.12 21.9704698,73.8227586 19.7798658,71.7062069 C17.5892617,69.5896552 0.451006711,69.2048276 0.451006711,50.0275862 C1.93288591,53.042069 5.02550336,57.3393103 11.661745,60.3537931 C22.8080537,65.4206897 30.6684564,59.7765517 34.5986577,65.2282759 C38.5288591,70.68 30.2818792,74.0793103 33.9543624,77.2862069 C37.6912752,80.4931034 43.4899329,72.4117241 52.7677852,76.7089655 C62.1100671,81.0062069 67.9087248,83.8282759 71.5812081,79.9158621 C75.4469799,75.9393103 65.9114094,70.68 74.1583893,67.2806897 Z" id="XMLID_149_" fill="#D2E9FF"></path>
                        <g id="XMLID_16_" transform="translate(19.973154, 10.903448)" fill="#D2E9FF">
                            <g id="XMLID_14_" transform="translate(5.154362, 0.000000)">
                                <path d="M5.02550336,29.1186207 C5.02550336,29.1186207 4.96107383,29.0544828 4.76778523,28.9262069 C4.57449664,28.797931 4.38120805,28.6055172 4.0590604,28.2848276 C3.47919463,27.7075862 2.70604027,26.8096552 2.06174497,25.5910345 C1.73959732,25.0137931 1.41744966,24.3082759 1.15973154,23.5386207 C0.902013423,22.7689655 0.773154362,21.9351724 0.644295302,21.0372414 C0.579865772,20.1393103 0.579865772,19.2413793 0.708724832,18.3434483 C0.773154362,17.8944828 0.837583893,17.4455172 0.966442953,16.9965517 C1.03087248,16.74 1.03087248,16.6117241 1.15973154,16.2268966 L1.35302013,15.5855172 C1.54630872,14.8158621 2.06174497,13.8537931 2.57718121,13.02 C3.09261745,12.2503448 3.80134228,11.4806897 4.51006711,10.9034483 C5.28322148,10.3262069 6.05637584,9.87724138 6.8295302,9.55655172 C7.60268456,9.23586207 8.44026846,9.04344828 9.14899329,8.91517241 C9.85771812,8.78689655 10.566443,8.78689655 11.1463087,8.78689655 C11.7261745,8.78689655 12.2416107,8.78689655 12.6926174,8.85103448 C13.1436242,8.91517241 13.4657718,8.91517241 13.6590604,8.97931034 C13.9167785,9.04344828 14.0456376,9.04344828 14.0456376,9.04344828 C14.8832215,9.23586207 15.3986577,10.0055172 15.2053691,10.8393103 C15.0120805,11.6731034 14.2389262,12.1862069 13.4013423,11.9937931 C13.4013423,11.9937931 13.3369128,11.9937931 13.3369128,11.9937931 L13.2080537,11.9937931 C13.2080537,11.9937931 13.1436242,11.9937931 13.0147651,11.9296552 C12.8214765,11.8655172 12.6281879,11.8013793 12.2416107,11.8013793 C11.9194631,11.7372414 11.5328859,11.6731034 11.0174497,11.6731034 C10.566443,11.6731034 10.0510067,11.6089655 9.47114094,11.6731034 C8.89127517,11.7372414 8.3114094,11.8013793 7.73154362,12.057931 C7.15167785,12.2503448 6.50738255,12.5068966 5.99194631,12.8917241 C5.41208054,13.2765517 4.8966443,13.7896552 4.44563758,14.3668966 C3.99463087,14.9441379 3.67248322,15.4572414 3.35033557,16.3551724 L3.09261745,16.9324138 L2.96375839,17.4455172 C2.83489933,17.8303448 2.70604027,18.2151724 2.70604027,18.6 C2.57718121,19.3696552 2.51275168,20.1393103 2.51275168,20.8448276 C2.51275168,21.5503448 2.64161074,22.32 2.7704698,22.9613793 C2.89932886,23.6027586 3.15704698,24.2441379 3.4147651,24.7572414 C3.93020134,25.8475862 4.57449664,26.6813793 5.02550336,27.1944828 C5.28322148,27.4510345 5.47651007,27.6434483 5.60536913,27.7717241 C5.73422819,27.9 5.79865772,27.9641379 5.79865772,27.9641379 L5.86308725,27.9641379 C6.12080537,28.2206897 6.1852349,28.6696552 5.92751678,28.9262069 C5.73422819,29.2468966 5.34765101,29.3110345 5.02550336,29.1186207 Z" id="XMLID_94_"></path>
                                <path d="M12.8214765,10.262069 C12.8214765,10.262069 12.8214765,10.1337931 12.885906,9.81310345 C12.9503356,9.55655172 13.0791946,9.17172414 13.2080537,8.65862069 C13.5302013,7.69655172 14.0456376,6.34965517 15.1409396,4.87448276 C15.6563758,4.16896552 16.3651007,3.39931034 17.2026846,2.82206897 C18.0402685,2.18068966 19.0067114,1.66758621 20.0375839,1.21862069 C20.5530201,1.0262069 21.1328859,0.897931034 21.7127517,0.705517241 C22.2926174,0.577241379 22.8724832,0.513103448 23.452349,0.448965517 C24.0322148,0.384827586 24.6120805,0.384827586 25.1919463,0.384827586 L25.642953,0.384827586 L25.7073826,0.384827586 L25.9006711,0.384827586 L25.9651007,0.384827586 L26.1583893,0.384827586 L26.9315436,0.448965517 C27.1892617,0.513103448 27.3825503,0.513103448 27.704698,0.577241379 L28.6711409,0.833793103 C28.9932886,0.962068966 29.3154362,1.0262069 29.6375839,1.15448276 L30.4751678,1.53931034 C31.0550336,1.79586207 31.5704698,2.11655172 32.0214765,2.50137931 C32.5369128,2.82206897 32.9234899,3.27103448 33.3744966,3.65586207 C34.9852349,5.32344828 35.8872483,7.31172414 36.4026846,8.91517241 C36.9181208,10.5827586 37.1758389,11.9937931 37.304698,12.9558621 C37.3691275,13.4689655 37.3691275,13.8537931 37.433557,14.1103448 C37.433557,14.4310345 37.433557,14.5593103 37.433557,14.5593103 C37.4979866,15.7137931 36.5959732,16.6758621 35.4362416,16.6758621 C34.2765101,16.74 33.3100671,15.842069 33.3100671,14.6875862 C33.3100671,14.6875862 33.3100671,14.6234483 33.3100671,14.6234483 L33.3100671,14.4951724 C33.3100671,14.4951724 33.3100671,14.4310345 33.3100671,14.2386207 C33.3100671,14.0462069 33.3100671,13.7255172 33.2456376,13.3406897 C33.1812081,12.5710345 33.052349,11.3524138 32.6657718,10.0696552 C32.2791946,8.78689655 31.6348993,7.31172414 30.6040268,6.15724138 C30.3463087,5.90068966 30.0885906,5.58 29.766443,5.32344828 C29.4442953,5.06689655 29.1221477,4.81034483 28.8,4.68206897 L28.2845638,4.36137931 C28.0912752,4.29724138 27.9624161,4.23310345 27.7691275,4.16896552 L27.2536913,3.97655172 C27.0604027,3.91241379 26.738255,3.91241379 26.5449664,3.84827586 L25.7718121,3.72 L25.5785235,3.72 L25.514094,3.72 L25.514094,3.72 L25.514094,3.72 C25.3852349,3.72 25.7073826,3.72 25.642953,3.72 L25.5785235,3.72 L25.2563758,3.72 C24.8053691,3.72 24.3543624,3.65586207 23.9033557,3.72 C23.452349,3.78413793 23.0013423,3.78413793 22.6147651,3.84827586 C22.2281879,3.97655172 21.7771812,4.04068966 21.390604,4.16896552 C20.6174497,4.42551724 19.9087248,4.7462069 19.3288591,5.19517241 C18.7489933,5.58 18.233557,6.09310345 17.8469799,6.6062069 C17.009396,7.63241379 16.5583893,8.65862069 16.3006711,9.42827586 C16.1718121,9.81310345 16.1073826,10.0696552 16.042953,10.262069 C15.9785235,10.4544828 15.9785235,10.5186207 15.9785235,10.5186207 L15.9785235,10.6468966 C15.7852349,11.4806897 15.0120805,11.9296552 14.1744966,11.8013793 C13.1436242,11.8013793 12.6926174,11.0317241 12.8214765,10.262069 Z" id="XMLID_99_"></path>
                            </g>
                            <path d="M49.9973154,19.6903448 C49.9973154,19.6903448 50.4483221,19.6903448 51.157047,19.7544828 C51.8657718,19.8186207 52.8322148,19.9468966 53.9919463,20.2675862 C55.1516779,20.5882759 56.504698,21.1013793 57.7932886,22.1275862 C58.4375839,22.6406897 59.0174497,23.217931 59.5328859,23.9234483 C59.790604,24.3082759 59.9838926,24.6289655 60.1771812,25.077931 L60.4348993,25.6551724 L60.5637584,26.2965517 C60.757047,26.937931 60.9503356,27.9 60.9503356,28.6696552 C61.0147651,29.5034483 60.9503356,30.2731034 60.757047,30.9786207 C60.4348993,32.4537931 59.8550336,33.7365517 59.2107383,34.6986207 C58.566443,35.6606897 57.8577181,36.3662069 57.4067114,36.8151724 C56.8912752,37.2641379 56.5691275,37.5206897 56.5691275,37.5206897 C56.2469799,37.7772414 55.7315436,37.7131034 55.4738255,37.3924138 C55.2161074,37.0717241 55.2805369,36.5586207 55.6026846,36.302069 C55.538255,36.3662069 56.6979866,35.4682759 57.6644295,33.7365517 C58.1798658,32.9027586 58.566443,31.8124138 58.695302,30.5937931 C58.7597315,30.0165517 58.7597315,29.3751724 58.695302,28.797931 C58.6308725,28.1565517 58.5020134,27.7075862 58.2442953,26.937931 L58.1154362,26.4889655 L57.9221477,26.1041379 C57.7932886,25.8475862 57.6,25.5910345 57.4711409,25.3986207 C57.1489933,24.9496552 56.6979866,24.6289655 56.2469799,24.3082759 C55.2805369,23.7310345 54.2496644,23.3462069 53.2832215,23.1537931 C52.3167785,22.9613793 51.5436242,22.8972414 50.9637584,22.8972414 C50.3838926,22.8972414 50.1261745,22.8972414 50.1261745,22.8972414 C49.2241611,22.8972414 48.4510067,22.1917241 48.4510067,21.2937931 C48.3865772,20.46 49.095302,19.6903448 49.9973154,19.6903448 Z" id="XMLID_100_"></path>
                            <path d="M7.21610738,27.5151724 C7.21610738,27.5151724 7.15167785,27.5151724 7.08724832,27.5151724 C6.95838926,27.5151724 6.8295302,27.5793103 6.63624161,27.6434483 C6.1852349,27.7717241 5.60536913,27.9641379 4.96107383,28.4131034 C4.63892617,28.6055172 4.31677852,28.862069 4.0590604,29.1827586 C3.73691275,29.5034483 3.47919463,29.8882759 3.28590604,30.3372414 C3.09261745,30.7862069 2.89932886,31.2351724 2.7704698,31.8124138 C2.64161074,32.3255172 2.57718121,32.9668966 2.57718121,33.48 C2.57718121,34.1855172 2.64161074,34.6344828 2.7704698,35.1475862 C2.89932886,35.6606897 3.09261745,36.1737931 3.4147651,36.6227586 C3.99463087,37.5206897 4.76778523,38.162069 5.5409396,38.6110345 C6.31409396,39.06 7.02281879,39.3165517 7.53825503,39.4448276 C8.05369128,39.5731034 8.37583893,39.6372414 8.3114094,39.6372414 C8.63355705,39.6372414 8.89127517,39.957931 8.82684564,40.2786207 C8.82684564,40.5993103 8.50469799,40.8558621 8.18255034,40.7917241 C8.18255034,40.7917241 7.79597315,40.7917241 7.21610738,40.6634483 C6.63624161,40.5351724 5.79865772,40.3427586 4.76778523,39.957931 C3.80134228,39.5089655 2.70604027,38.8034483 1.80402685,37.7131034 C1.35302013,37.1358621 1.03087248,36.4944828 0.773154362,35.8531034 C0.644295302,35.5324138 0.579865772,35.0834483 0.451006711,34.7627586 C0.322147651,34.377931 0.322147651,34.1213793 0.257718121,33.7365517 C0.257718121,33.5441379 0.193288591,33.48 0.193288591,33.1593103 L0.193288591,32.6462069 C0.193288591,32.2613793 0.193288591,31.9406897 0.257718121,31.5558621 C0.322147651,30.8503448 0.451006711,30.0806897 0.708724832,29.4393103 C0.966442953,28.7337931 1.2885906,28.0924138 1.73959732,27.5793103 C2.1261745,27.002069 2.57718121,26.5531034 3.09261745,26.1682759 C3.99463087,25.3986207 4.8966443,25.0137931 5.5409396,24.7572414 C5.86308725,24.6289655 6.12080537,24.5648276 6.31409396,24.5006897 C6.50738255,24.4365517 6.63624161,24.4365517 6.63624161,24.4365517 C7.53825503,24.2441379 8.44026846,24.7572414 8.63355705,25.6551724 C8.82684564,26.5531034 8.3114094,27.4510345 7.40939597,27.6434483 C7.34496644,27.5151724 7.28053691,27.5151724 7.21610738,27.5151724 L7.21610738,27.5151724 Z" id="XMLID_101_"></path>
                            <path d="M46.7114094,46.8848276 C46.7114094,46.8848276 46.7114094,47.3337931 46.5825503,48.0393103 C46.4536913,48.7448276 46.2604027,49.7068966 45.8738255,50.8613793 C45.4872483,52.0158621 44.9073826,53.3627586 43.8120805,54.5813793 C43.2966443,55.1586207 42.652349,55.7358621 41.8791946,56.1848276 C41.4926174,56.3772414 41.1060403,56.6337931 40.7194631,56.762069 L40.0751678,56.9544828 L39.495302,57.0827586 C38.8510067,57.2751724 37.8845638,57.3393103 37.1114094,57.3393103 C36.2738255,57.3393103 35.5006711,57.2110345 34.7919463,57.0827586 C33.3100671,56.697931 32.085906,56.0565517 31.1194631,55.3510345 C30.1530201,54.6455172 29.5087248,53.94 29.0577181,53.4268966 C28.6067114,52.9137931 28.4134228,52.5931034 28.4134228,52.5289655 C28.1557047,52.2082759 28.2845638,51.6951724 28.6067114,51.4386207 C28.9288591,51.182069 29.4442953,51.3103448 29.7020134,51.6310345 C29.7020134,51.5668966 30.4751678,52.7213793 32.2147651,53.8117241 C33.052349,54.3248276 34.147651,54.837931 35.3073826,55.0303448 C35.8872483,55.1586207 36.5315436,55.1586207 37.1114094,55.0944828 C37.7557047,55.0303448 38.2067114,54.9662069 38.9798658,54.7096552 L39.4308725,54.5813793 L39.8174497,54.3889655 C40.0751678,54.2606897 40.3328859,54.1324138 40.5261745,53.94 C40.9771812,53.6193103 41.3637584,53.1703448 41.685906,52.7855172 C42.3302013,51.8875862 42.7167785,50.8613793 42.9744966,49.8993103 C43.2322148,48.9372414 43.2966443,48.1675862 43.3610738,47.5903448 C43.4255034,47.0131034 43.3610738,46.7565517 43.3610738,46.7565517 C43.3610738,45.8586207 44.1342282,45.1531034 45.0362416,45.1531034 C46.0026846,45.2172414 46.7758389,45.9227586 46.7114094,46.8848276 Z" id="XMLID_15_"></path>
                        </g>
                    </g>
                </g>
                <g id="SMOKE_3" transform="translate(111.000000, 88.000000)" fill="#D2E9FF" fill-rule="nonzero">
                    <path d="M19.753125,23.27 L16.996875,15.665 C16.996875,15.665 23.3625,14.69 20.015625,6.435 C18.1125,1.82 12.73125,5.46 12.73125,5.46 C12.73125,5.46 11.8125,-1.235 4.790625,0.26 C-0.721875,1.43 -0.853125,10.205 1.3125,13 C3.4125,15.795 5.578125,15.535 5.578125,15.535 C5.578125,15.535 0.984375,15.405 1.70625,19.565 C2.428125,23.725 6.0375,23.92 8.79375,22.555 C10.10625,21.905 11.090625,20.28 11.090625,20.28 L17.0625,25.155 C17.5875,25.61 18.375,25.675 19.03125,25.35 L19.03125,25.35 C19.753125,25.025 20.08125,24.115 19.753125,23.27 Z" id="XMLID_104_"></path>
                </g>
                <g id="SMOKE_4" transform="translate(175.000000, 121.000000)" fill="#D2E9FF" fill-rule="nonzero">
                    <g id="XMLID_102_">
                        <path d="M19.2903226,6.92592593 C19.0322581,8.12222222 18.5806452,9.19259259 18.0645161,9.75925926 C16.516129,11.5222222 14.0645161,11.7111111 14.0645161,11.7111111 C14.0645161,11.7111111 16.2580645,12.9074074 14.6451613,15.4888889 C13.4193548,17.3777778 9.80645161,16.2444444 8.83870968,15.0481481 C7.80645161,13.8518519 7.80645161,12.4666667 7.80645161,12.4666667 L3.41935484,16.1185185 C2.70967742,16.7481481 1.5483871,16.6851852 0.903225806,15.9296296 L0.903225806,15.9296296 C0.322580645,15.3 0.322580645,14.2925926 0.903225806,13.662963 L1.48387097,13.0333333 L5.03225806,8.94074074 C5.03225806,8.94074074 -3.72479825e-14,6.92592593 1.80645161,3.27407407 C3.41935484,-0.062962963 6.64516129,1.51111111 7.48387097,2.39259259 C8.25806452,3.21111111 8.38709677,4.5962963 8.38709677,4.5962963 C8.38709677,4.5962963 9.87096774,-1.00740741 15.2258065,0.251851852 C19.2258065,1.13333333 19.8064516,4.34444444 19.2903226,6.92592593 Z" id="XMLID_148_"></path>
                    </g>
                </g>
                <g id="SMOKE_5" transform="translate(30.000000, 180.000000)" fill-rule="nonzero">
                    <g id="XMLID_109_">
                        <path d="M27.9645833,26.7235294 C28.9979167,28.1470588 29.0625,30.0882353 28.0291667,31.5764706 L27.6416667,32.0941176 C27.2541667,32.6117647 26.6729167,32.8705882 26.0916667,32.8705882 C25.6395833,32.8705882 25.2520833,32.7411765 24.8645833,32.4176471 L18.6645833,26.9823529 C18.6645833,26.9823529 15.6291667,34.0352941 7.3625,32.4176471 C1.61458333,31.2529412 0.129166667,26.3352941 0.775,22.2588235 C1.03333333,20.2529412 1.80833333,18.4411765 2.84166667,17.3411765 C4.65,15.4 6.975,15.1411765 8.65416667,15.2058824 C6.975,14.6882353 4.58541667,13.3294118 3.68125,9.96470588 C3.1,7.82941176 3.22916667,5.69411765 4.00416667,4.01176471 C5.23125,1.35882353 8.00833333,-0.323529412 11.9479167,0.129411765 C18.4708333,0.970588235 18.6,10.2235294 18.6,10.2235294 C18.6,10.2235294 20.8604167,3.94705882 27.0604167,6.66470588 C32.4854167,9.05882353 30.9354167,16.3058824 27.2541667,19.1529412 C25.3166667,20.6411765 23.6375,20.9647059 23.6375,20.9647059 L27.9645833,26.7235294 Z" id="XMLID_22_" fill="#E1ECFF"></path>
                        <path d="M13.95,16.3705882 C13.95,16.3705882 11.3020833,15.8529412 8.71875,15.1411765 C7.03958333,14.6235294 4.65,13.3294118 3.68125,9.9 C3.1,7.76470588 3.22916667,5.62941176 4.00416667,3.94705882 C4.39166667,6.21176471 5.425,9.77058824 7.94375,12.1 C11.8833333,15.7235294 13.95,16.3705882 13.95,16.3705882 Z" id="XMLID_144_" fill="#C5DFFF"></path>
                        <path d="M27.6416667,32.0294118 C27.2541667,32.5470588 26.6729167,32.8058824 26.0916667,32.8058824 C25.6395833,32.8058824 25.2520833,32.6764706 24.8645833,32.3529412 L18.6645833,26.9176471 C18.6645833,26.9176471 15.6291667,33.9705882 7.3625,32.3529412 C1.61458333,31.1882353 0.129166667,26.2705882 0.775,22.1941176 C1.67916667,24.1352941 3.68125,26.3352941 8.26666667,27.1117647 C17.4375,28.7294118 17.6958333,22.9705882 17.6958333,22.9705882 L27.6416667,32.0294118 Z" id="XMLID_20_" fill="#C5DFFF"></path>
                    </g>
                </g>
                <g id="CABLE_1" transform="translate(57.000000, 160.000000)" fill="#FF97C9" fill-rule="nonzero">
                    <g id="XMLID_112_">
                        <path d="M25.3302326,33.4769231 C24.4837209,33.4769231 21.6837209,33.2807692 19.144186,30.9269231 C16.6046512,28.5730769 15.3023256,24.8461538 15.2372093,19.9423077 C15.1069767,8.36923077 12.8930233,6.8 10.4837209,6.08076923 C7.09767442,5.1 3.45116279,6.40769231 3.45116279,6.40769231 C2.14883721,6.93076923 0.71627907,6.27692308 0.195348837,4.96923077 C-0.325581395,3.66153846 0.325581395,2.22307692 1.62790698,1.7 C1.82325581,1.63461538 6.77209302,-0.261538462 11.8511628,1.17692308 C18.6232558,3.13846154 20.1209302,9.74230769 20.1860465,19.8115385 C20.2511628,23.2115385 21.0325581,25.7615385 22.4,27.1346154 C23.7023256,28.3769231 25.2,28.3769231 25.2,28.3769231 C26.5674419,28.2461538 27.7395349,29.4230769 27.8046512,30.7961538 C27.8697674,32.1692308 26.827907,33.3461538 25.4604651,33.4115385 C25.5255814,33.4769231 25.4604651,33.4769231 25.3302326,33.4769231 Z" id="XMLID_329_"></path>
                    </g>
                </g>
                <g id="CABLE_2" transform="translate(77.000000, 157.000000)" fill="#99ADF9" fill-rule="nonzero">
                    <g id="XMLID_4_">
                        <path d="M3.13846154,0.903225806 C2.48461538,1.48387097 0.588461538,3.5483871 0.326923077,6.90322581 C0.130769231,10.3225806 1.7,13.8709677 5.03461538,17.483871 C12.8153846,25.8709677 12.3576923,28.516129 11.05,30.6451613 C9.21923077,33.6774194 5.68846154,35.1612903 5.68846154,35.1612903 C4.38076923,35.6774194 3.79230769,37.0967742 4.31538462,38.3870968 C4.83846154,39.6774194 6.27692308,40.2580645 7.58461538,39.7419355 C7.78076923,39.6774194 12.75,37.6774194 15.4307692,33.1612903 C19.0269231,27.0967742 15.5615385,21.4193548 8.82692308,14.0645161 C6.53846154,11.6129032 5.36153846,9.22580645 5.42692308,7.29032258 C5.49230769,5.48387097 6.60384615,4.51612903 6.66923077,4.4516129 C7.71538462,3.61290323 7.78076923,2 6.86538462,0.967741935 C5.95,-0.064516129 4.44615385,-0.193548387 3.33461538,0.709677419 C3.26923077,0.774193548 3.20384615,0.838709677 3.13846154,0.903225806 Z" id="XMLID_5_"></path>
                    </g>
                </g>
                <g id="CABLE_3" transform="translate(175.000000, 158.000000)" fill="#99ADF9" fill-rule="nonzero">
                    <g id="XMLID_108_">
                        <path d="M18.9130435,14.5625 C16.4347826,14.5625 13.6956522,13.8125 11.2173913,11.9375 C6.97826087,8.8125 4.17391304,10.9375 4.17391304,11 C3.13043478,11.875 1.5,11.75 0.652173913,10.6875 C-0.260869565,9.6875 -0.130434783,8.125 0.97826087,7.3125 C3,5.6875 8.41304348,3.75 14.3478261,8.125 C17.5434783,10.5 20.9347826,9.875 22.2391304,8.6875 C23.4782609,7.625 24.1956522,4.5625 24.326087,2.75 C24.3913043,1.4375 25.6304348,0.375 27,0.5 C28.3695652,0.5625 29.4130435,1.75 29.3478261,3.0625 C29.2826087,3.6875 28.826087,9.5 25.6304348,12.25 C24,13.6875 21.5869565,14.5625 18.9130435,14.5625 Z" id="XMLID_332_"></path>
                    </g>
                </g>
                <g id="ORNAMENT_1" transform="translate(193.000000, 203.000000)" fill="#E1ECFF" fill-rule="nonzero">
                    <g id="XMLID_1_">
                        <path d="M0,0.583783784 L20.934375,23.7405405 C20.934375,23.7405405 14.83125,13.3621622 9.58125,6.81081081 C4.06875,0.0648648649 0,0.583783784 0,0.583783784 Z" id="XMLID_125_"></path>
                        <path d="M16.471875,11.2216216 C16.471875,11.2216216 11.090625,4.86486486 10.303125,3.89189189 C8.203125,1.36216216 6.69375,0.583783784 6.69375,0.583783784 C6.69375,0.583783784 8.596875,0.324324324 11.090625,3.43783784 C13.584375,6.48648649 16.471875,11.2216216 16.471875,11.2216216 Z" id="XMLID_13_"></path>
                    </g>
                </g>
                <g id="ORNAMENT_2" transform="translate(177.000000, 177.000000)" fill="#FEC272" fill-rule="nonzero">
                    <g id="XMLID_341_">
                        <g id="XMLID_319_">
                            <polygon id="XMLID_103_" points="0.130434783 15.9722222 9.52173913 0.127777778 3.91304348 14.7583333 12.1956522 22.8083333"></polygon>
                            <polygon id="XMLID_110_" points="14.8043478 8.05 1.30434783 15.1416667 4.63043478 16.3555556"></polygon>
                        </g>
                    </g>
                </g>
                <g id="ORNAMENT_3" transform="translate(41.000000, 148.000000)" fill="#FEC272" fill-rule="nonzero">
                    <g id="XMLID_340_">
                        <path d="M15.4888889,8.95777778 L10.7666667,3.35111111 C10.2,2.64222222 10.262963,1.61111111 10.9555556,0.966666667 C11.6481481,0.386666667 12.6555556,0.451111111 13.2851852,1.16 C13.4111111,1.28888889 13.4740741,1.41777778 13.537037,1.54666667 L16.5592593,8.24888889 C16.6851852,8.57111111 16.5592593,8.95777778 16.2444444,9.08666667 C15.9925926,9.28 15.6777778,9.21555556 15.4888889,8.95777778 Z" id="XMLID_115_"></path>
                        <path d="M11.1444444,15.08 L2.26666667,15.9822222 C1.38518519,16.0466667 0.566666667,15.4022222 0.503703704,14.5 C0.440740741,13.5977778 1.07037037,12.76 1.95185185,12.6955556 C2.07777778,12.6955556 2.2037037,12.6955556 2.32962963,12.6955556 L11.1444444,13.7911111 C11.5222222,13.8555556 11.7111111,14.1777778 11.7111111,14.5 C11.6481481,14.8222222 11.4592593,15.08 11.1444444,15.08 Z" id="XMLID_119_"></path>
                        <path d="M15.0481481,22.5555556 L10.7037037,28.0977778 C10.137037,28.8066667 9.12962963,28.9355556 8.43703704,28.3555556 C7.74444444,27.7755556 7.61851852,26.7444444 8.18518519,26.0355556 C8.24814815,25.9066667 8.37407407,25.7777778 8.5,25.7133333 L14.1666667,21.5888889 C14.4814815,21.3955556 14.8592593,21.46 15.1111111,21.7177778 C15.3,21.9755556 15.237037,22.2977778 15.0481481,22.5555556 Z" id="XMLID_120_"></path>
                    </g>
                </g>
                <g id="ORNAMENT_4" transform="translate(68.000000, 142.000000)" fill="#FEC272" fill-rule="nonzero">
                    <g id="XMLID_6_">
                        <path d="M15.9823529,10.92 L19.4117647,6.37 C19.8647059,5.785 20.6411765,5.72 21.2235294,6.11 C21.8058824,6.565 21.8705882,7.345 21.4823529,7.93 C21.4176471,7.995 21.3529412,8.125 21.2235294,8.19 L16.6941176,11.635 C16.5,11.83 16.1764706,11.765 15.9823529,11.57 C15.8529412,11.375 15.8529412,11.115 15.9823529,10.92 Z" id="XMLID_10_"></path>
                        <path d="M10.6764706,8.58 L8.47647059,1.885 C8.28235294,1.235 8.60588235,0.455 9.31764706,0.26 C9.96470588,0.065 10.7411765,0.39 10.9352941,1.105 C10.9352941,1.17 11,1.3 11,1.365 L11.6470588,8.385 C11.6470588,8.645 11.4529412,8.905 11.1941176,8.905 C10.9352941,8.905 10.7411765,8.775 10.6764706,8.58 Z" id="XMLID_8_"></path>
                        <path d="M5.69411765,12.805 L0.776470588,10.335 C0.129411765,10.01 -0.129411765,9.23 0.194117647,8.58 C0.517647059,7.93 1.29411765,7.67 1.94117647,7.995 C2.07058824,8.06 2.13529412,8.125 2.26470588,8.19 L6.34117647,11.895 C6.53529412,12.09 6.6,12.415 6.40588235,12.675 C6.14705882,12.87 5.88823529,12.935 5.69411765,12.805 Z" id="XMLID_7_"></path>
                    </g>
                </g>
                <g id="ORNAMENT_5" transform="translate(200.000000, 145.000000)" fill="#FEC272" fill-rule="nonzero">
                    <g id="XMLID_328_">
                        <path d="M3.59615385,2.36388889 L2.41923077,8.94444444 C2.35384615,9.32777778 2.02692308,9.51944444 1.63461538,9.45555556 C1.30769231,9.39166667 1.11153846,9.13611111 1.04615385,8.88055556 L0.196153846,2.23611111 C0.0653846154,1.34166667 0.719230769,0.511111111 1.7,0.383333333 C2.61538462,0.255555556 3.46538462,0.894444444 3.59615385,1.85277778 C3.66153846,2.04444444 3.66153846,2.17222222 3.59615385,2.36388889 Z" id="XMLID_121_"></path>
                        <path d="M15.4307692,8.56111111 L8.56538462,12.9694444 C8.10769231,13.225 7.51923077,13.1611111 7.25769231,12.7138889 C6.99615385,12.3305556 7.06153846,11.8194444 7.38846154,11.5 L13.4038462,6.00555556 C14.0576923,5.36666667 15.1692308,5.43055556 15.7576923,6.06944444 C16.4115385,6.70833333 16.3461538,7.79444444 15.6923077,8.36944444 C15.5615385,8.43333333 15.4961538,8.49722222 15.4307692,8.56111111 Z" id="XMLID_122_"></path>
                        <path d="M14.3192308,22.6166667 L8.43461538,19.8694444 C8.04230769,19.6777778 7.84615385,19.2305556 8.04230769,18.7833333 C8.17307692,18.4638889 8.56538462,18.2722222 8.89230769,18.3361111 L15.3,19.4222222 C16.2153846,19.55 16.8692308,20.4444444 16.6730769,21.3388889 C16.5423077,22.2333333 15.6269231,22.8722222 14.7115385,22.6805556 C14.6461538,22.7444444 14.5153846,22.6805556 14.3192308,22.6166667 Z" id="XMLID_123_"></path>
                    </g>
                </g>
                <g id="WINGS_1" transform="translate(89.000000, 98.000000)" fill-rule="nonzero">
                    <g id="XMLID_28_">
                        <path d="M34,37.8518519 C34,37.8518519 6.47307692,70.5185185 5.42692308,69.6759259 C5.16538462,69.4814815 4.70769231,67.9907407 4.11923077,65.5925926 C2.55,58.787037 0.392307692,44.5277778 0.130769231,29.3611111 C-0.196153846,8.94444444 0.326923077,2.72222222 5.81923077,0.194444444 C9.87307692,-1.68518519 20.9230769,16.3981481 28.1807692,28.5185185 C30.7961538,32.6666667 32.8230769,36.1018519 34,37.8518519 Z" id="XMLID_127_" fill="#FF97C9"></path>
                        <path d="M34,37.8518519 C34,37.8518519 6.47307692,70.5185185 5.42692308,69.6759259 C5.16538462,69.4814815 4.70769231,67.9907407 4.11923077,65.5925926 C6.8,58.787037 10.0692308,51.5925926 13.6653846,46.1481481 C19.4846154,37.462963 24.7153846,31.8240741 28.1807692,28.5185185 C30.7961538,32.6666667 32.8230769,36.1018519 34,37.8518519 Z" id="XMLID_124_" fill="#FC75BC"></path>
                    </g>
                </g>
                <g id="WINGS_2" transform="translate(172.000000, 194.000000)" fill-rule="nonzero">
                    <g id="XMLID_2_">
                        <path d="M45.2333333,53.5290698 C43.5722222,56.9825581 28.175,52.1860465 15.5888889,47.8372093 C13.1611111,47.005814 10.7972222,46.1744186 8.625,45.4069767 C3.64166667,43.6802326 0.319444444,38.9476744 0.319444444,33.6395349 C0.383333333,21.2965116 -0.766666667,1.6627907 1.59722222,0.639534884 C4.40833333,-0.639534884 18.3361111,13.1104651 31.05,27.8837209 C44.2111111,43.1686047 47.725,48.2209302 45.2333333,53.5290698 Z" id="XMLID_11_" fill="#FF97C9"></path>
                        <path d="M15.5888889,47.8372093 C13.1611111,47.005814 10.7972222,46.1744186 8.625,45.4069767 C3.64166667,43.6802326 0.319444444,38.9476744 0.319444444,33.6395349 C0.383333333,21.2965116 -0.766666667,1.6627907 1.59722222,0.639534884 C1.66111111,0.639534884 6.9,16.8837209 10.4777778,29.6744186 C12.5222222,37.0930233 14.2472222,43.1686047 15.5888889,47.8372093 Z" id="XMLID_9_" fill="#FC75BC"></path>
                    </g>
                </g>
                <g id="ROCKET" transform="translate(53.000000, 127.000000)" fill-rule="nonzero">
                    <g id="XMLID_32_">
                        <g id="XMLID_31_">
                            <path d="M125.353846,34.7697842 C124.901538,52.3478417 122.316923,81.5802158 111.784615,110.555036 C102.673846,135.666547 94.7907692,152.343165 89.5569231,162.194604 C85.2276923,170.307554 82.7076923,173.913309 82.7076923,173.913309 C82.7076923,173.913309 75.8584615,177.325899 62.6769231,178.356115 C55.3107692,178.935612 46.0061538,178.806835 34.8276923,176.939568 C3.55384615,171.724101 0.258461538,161.93705 0.258461538,161.93705 C0.258461538,161.93705 -0.193846154,156.335252 1.29230769,145.32482 C3.16615385,131.159353 8.33538462,108.108273 21.84,76.6223022 C37.0246154,41.4017986 54.3415385,20.668705 65.0676923,10.1733813 C71.4,3.99208633 75.4707692,1.35215827 75.4707692,1.35215827 C75.4707692,1.35215827 83.8707692,-2.06043165 101.252308,3.34820144 C108.166154,5.47302158 113.4,8.24172662 117.083077,10.8816547 C122.769231,14.8093525 125.095385,18.2863309 125.095385,18.2863309 C125.095385,18.2863309 125.676923,24.5964029 125.353846,34.7697842 Z" id="XMLID_116_" fill="#E1ECFF"></path>
                            <path d="M125.353846,34.7697842 C124.901538,52.3478417 122.316923,81.5802158 111.784615,110.555036 C102.673846,135.666547 94.7907692,152.343165 89.5569231,162.194604 C85.2276923,170.307554 82.7076923,173.913309 82.7076923,173.913309 C82.7076923,173.913309 75.8584615,177.325899 62.6769231,178.356115 C71.0769231,166.894964 83.5476923,146.998921 95.9538462,116.865108 C116.113846,67.9298561 117.341538,24.9183453 117.147692,10.8816547 C122.833846,14.8093525 125.16,18.2863309 125.16,18.2863309 C125.16,18.2863309 125.676923,24.5964029 125.353846,34.7697842 Z" id="XMLID_113_" fill="#C5DFFF"></path>
                            <g id="XMLID_129_" transform="translate(5.169231, 42.496403)" fill="#F8FBFF">
                                <path d="M3.48923077,100.059712 C3.29538462,100.059712 3.16615385,100.059712 2.97230769,99.9953237 C1.16307692,99.7377698 -0.0646153846,97.9992806 0.193846154,96.1964029 C0.387692308,95.1017986 4.52307692,68.573741 15.96,41.852518 C27.3969231,15.1956835 36.4430769,2.12482014 36.8307692,1.54532374 C37.8646154,0.0643884892 39.9323077,-0.321942446 41.4830769,0.708273381 C42.9692308,1.73848921 43.3569231,3.79892086 42.3230769,5.3442446 C42.2584615,5.47302158 33.2123077,18.4794964 22.0984615,44.4280576 C10.9846154,70.3766187 6.78461538,96.9046763 6.78461538,97.1622302 C6.46153846,98.9007194 5.04,100.059712 3.48923077,100.059712 Z" id="XMLID_324_"></path>
                            </g>
                        </g>
                        <g id="XMLID_29_" transform="translate(64.615385, 0.000000)">
                            <path d="M60.7384615,34.7697842 C58.4769231,32.773741 55.5692308,30.4557554 52.08,28.0733813 C50.6584615,27.107554 49.1076923,26.0773381 47.4276923,25.0471223 C46.5230769,24.5320144 45.6184615,23.952518 44.6492308,23.4374101 C40.8369231,21.2482014 36.5076923,19.1877698 31.7907692,17.3848921 C31.4030769,17.2561151 31.08,17.1273381 30.6923077,16.9985612 C29.9815385,16.7410072 29.3353846,16.4834532 28.6892308,16.2902878 C23.2615385,14.3586331 18.48,13.0708633 14.4092308,12.1694245 C13.2461538,11.9118705 12.0830769,11.718705 11.0492308,11.4611511 C6.52615385,10.6241007 3.03692308,10.3665468 0.581538462,10.2377698 C6.91384615,4.05647482 10.9846154,1.41654676 10.9846154,1.41654676 C10.9846154,1.41654676 13.5692308,0.386330935 18.8676923,0.386330935 C20.0307692,0.386330935 21.3230769,0.450719424 22.7446154,0.579496403 C26.1046154,0.83705036 30.1753846,1.54532374 34.9569231,2.89748201 C35.5384615,3.09064748 36.1846154,3.21942446 36.7661538,3.41258993 C37.2184615,3.54136691 37.6707692,3.67014388 38.1230769,3.86330935 L38.1230769,3.86330935 C41.8707692,5.15107914 45.1015385,6.5676259 47.8153846,7.98417266 C48.9138462,8.56366906 49.8830769,9.14316547 50.8523077,9.78705036 C51.4984615,10.1733813 52.0153846,10.5597122 52.5969231,10.9460432 C58.2830769,14.873741 60.6092308,18.3507194 60.6092308,18.3507194 C60.6092308,18.3507194 61.0615385,24.5964029 60.7384615,34.7697842 Z" id="XMLID_351_" fill="#1C3177"></path>
                            <path d="M60.7384615,34.7697842 C58.4769231,32.773741 55.5692308,30.4557554 52.08,28.0733813 C52.5969231,20.5399281 52.5969231,14.6805755 52.5969231,10.9460432 C58.2830769,14.873741 60.6092308,18.3507194 60.6092308,18.3507194 C60.6092308,18.3507194 61.0615385,24.5964029 60.7384615,34.7697842 Z" id="XMLID_111_" fill="#142966"></path>
                            <g id="XMLID_118_" transform="translate(10.984615, 0.000000)" fill="#142966">
                                <g id="XMLID_105_" transform="translate(33.600000, 7.726619)">
                                    <path d="M6.26769231,2.06043165 L3.29538462,16.5478417 C3.23076923,16.8697842 3.10153846,17.1273381 2.84307692,17.3848921 C1.93846154,16.8697842 1.03384615,16.2902878 0.0646153846,15.7751799 L3.23076923,0.321942446 C4.32923077,0.901438849 5.36307692,1.48093525 6.26769231,2.06043165 Z" id="XMLID_337_"></path>
                                </g>
                                <g id="XMLID_106_" transform="translate(17.446154, 2.575540)">
                                    <path d="M9.69230769,1.28776978 L3.36,14.8093525 C2.97230769,14.6805755 2.64923077,14.5517986 2.26153846,14.4230216 C1.55076923,14.1654676 0.904615385,13.9079137 0.258461538,13.7147482 L6.46153846,0.321942446 C7.04307692,0.515107914 7.68923077,0.643884892 8.27076923,0.83705036 C8.78769231,1.03021583 9.24,1.15899281 9.69230769,1.28776978 Z" id="XMLID_336_"></path>
                                </g>
                                <g id="XMLID_107_">
                                    <path d="M11.76,0.579496403 C11.6953846,0.708273381 11.6307692,0.83705036 11.5661538,0.965827338 L3.42461538,12.1694245 C2.26153846,11.9118705 1.09846154,11.718705 0.0646153846,11.4611511 C0.129230769,11.2035971 0.193846154,10.9460432 0.387692308,10.6884892 L7.88307692,0.321942446 C9.04615385,0.386330935 10.3384615,0.450719424 11.76,0.579496403 Z" id="XMLID_333_"></path>
                                </g>
                            </g>
                        </g>
                        <g id="XMLID_30_" transform="translate(12.923077, 67.607914)">
                            <ellipse id="XMLID_130_" fill="#C5DFFF" transform="translate(40.768037, 48.290240) rotate(18.935019) translate(-40.768037, -48.290240) " cx="40.7680366" cy="48.2902401" rx="29.0665984" ry="40.1938819"></ellipse>
                            <ellipse id="XMLID_132_" fill="#1C3177" transform="translate(42.701749, 47.068526) rotate(18.935019) translate(-42.701749, -47.068526) " cx="42.7017489" cy="47.0685265" rx="29.0665976" ry="39.7429892"></ellipse>
                            <ellipse id="XMLID_133_" fill="#99ADF9" transform="translate(41.732550, 47.068172) rotate(18.935019) translate(-41.732550, -47.068172) " cx="41.7325505" cy="47.0681723" rx="23.0595018" ry="32.1422227"></ellipse>
                            <ellipse id="XMLID_134_" fill="#C5DFFF" transform="translate(40.378251, 28.597639) rotate(18.935019) translate(-40.378251, -28.597639) " cx="40.3782508" cy="28.5976388" rx="6.58842913" ry="9.21109786"></ellipse>
                            <ellipse id="XMLID_135_" fill="#C5DFFF" transform="translate(31.076827, 53.831926) rotate(18.935019) translate(-31.076827, -53.831926) " cx="31.0768274" cy="53.8319256" rx="3.55258422" ry="4.8954087"></ellipse>
                            <path d="M63.5815385,54.5370504 C57.7661538,71.342446 43.3569231,81.5802158 31.2738462,77.4593525 C24.9415385,75.2701439 20.4830769,69.5395683 18.6092308,62.1348921 C20.16,63.1651079 21.84,64.0665468 23.6492308,64.6460432 C38.64,69.7971223 56.6676923,56.9838129 63.84,36.057554 C64.2923077,34.7697842 64.68,33.4820144 65.0030769,32.1942446 C66.6184615,38.826259 66.2953846,46.7460432 63.5815385,54.5370504 Z" id="XMLID_141_" fill="#7C99F2"></path>
                        </g>
                        <g id="XMLID_12_" transform="translate(0.000000, 144.874101)">
                            <path d="M89.6215385,17.3848921 C85.2923077,25.4978417 82.7723077,29.1035971 82.7723077,29.1035971 C82.7723077,29.1035971 75.9230769,32.5161871 62.7415385,33.5464029 C55.3753846,34.1258993 46.0707692,33.9971223 34.8923077,32.1298561 C23.3261538,30.1982014 15.6369231,27.6226619 10.4676923,25.1758993 C1.68,20.9906475 0.323076923,17.1273381 0.323076923,17.1273381 C0.323076923,17.1273381 -0.129230769,11.5255396 1.35692308,0.515107914 C4.07076923,3.02625899 7.68923077,5.85935252 12.4707692,8.49928058 C19.8369231,12.5557554 29.8523077,16.3546763 43.4861538,18.3507194 C53.6953846,19.8316547 63.4523077,20.0248201 72.1753846,19.4453237 C78.6369231,19.1233813 84.5169231,18.2863309 89.6215385,17.3848921 Z" id="XMLID_150_" fill="#FF97C9"></path>
                            <path d="M89.6215385,17.3848921 C85.2923077,25.4978417 82.7723077,29.1035971 82.7723077,29.1035971 C82.7723077,29.1035971 75.9230769,32.5161871 62.7415385,33.5464029 C65.52,29.747482 68.6861538,25.1115108 72.1753846,19.4453237 C78.6369231,19.1233813 84.5169231,18.2863309 89.6215385,17.3848921 Z" id="XMLID_114_" fill="#FC75BC"></path>
                            <path d="M12.4707692,8.56366906 L10.4676923,25.2402878 C1.68,21.055036 0.323076923,17.1917266 0.323076923,17.1917266 C0.323076923,17.1917266 -0.129230769,11.5899281 1.35692308,0.579496403 C4.07076923,3.09064748 7.68923077,5.85935252 12.4707692,8.56366906 Z" id="XMLID_143_" fill="#FCB6DA"></path>
                        </g>
                    </g>
                </g>
            </g>
            <rect id="矩形" fill="#FFFFFF" style="mix-blend-mode: color;" x="0" y="0" width="218" height="334"></rect>
        </g>
    </g>
</svg>