<?xml version="1.0" encoding="UTF-8"?>
<svg width="250px" height="251px" viewBox="0 0 250 251" version="1.1" xmlns="http://www.w3.org/2000/svg" xmlns:xlink="http://www.w3.org/1999/xlink">
    <title>编组 25</title>
    <defs>
        <linearGradient x1="50%" y1="30.8651676%" x2="50%" y2="100%" id="linearGradient-1">
            <stop stop-color="#FFFFFF" offset="0%"></stop>
            <stop stop-color="#F8F8F8" offset="100%"></stop>
        </linearGradient>
        <linearGradient x1="50%" y1="100%" x2="50%" y2="3.061617e-15%" id="linearGradient-2">
            <stop stop-color="#F8F8F8" offset="0%"></stop>
            <stop stop-color="#DBDBDB" offset="100%"></stop>
        </linearGradient>
        <linearGradient x1="43.9527265%" y1="61.4404631%" x2="58.82%" y2="0%" id="linearGradient-3">
            <stop stop-color="#F9F9F9" offset="0%"></stop>
            <stop stop-color="#EBEBEB" offset="100%"></stop>
        </linearGradient>
        <linearGradient x1="25.4854702%" y1="75.5043118%" x2="68.2803632%" y2="42.8961155%" id="linearGradient-4">
            <stop stop-color="#DFDFDF" offset="0%"></stop>
            <stop stop-color="#F2F2F2" offset="100%"></stop>
        </linearGradient>
        <linearGradient x1="50%" y1="100%" x2="50%" y2="3.061617e-15%" id="linearGradient-5">
            <stop stop-color="#F8F8F8" offset="0%"></stop>
            <stop stop-color="#DBDBDB" offset="100%"></stop>
        </linearGradient>
        <linearGradient x1="43.8986124%" y1="61.4404631%" x2="58.8989258%" y2="0%" id="linearGradient-6">
            <stop stop-color="#F9F9F9" offset="0%"></stop>
            <stop stop-color="#EBEBEB" offset="100%"></stop>
        </linearGradient>
        <linearGradient x1="25.4854702%" y1="75.5043118%" x2="68.2803632%" y2="42.8961155%" id="linearGradient-7">
            <stop stop-color="#DFDFDF" offset="0%"></stop>
            <stop stop-color="#F2F2F2" offset="100%"></stop>
        </linearGradient>
        <radialGradient cx="35.898299%" cy="34.6633728%" fx="35.898299%" fy="34.6633728%" r="125.721939%" id="radialGradient-8">
            <stop stop-color="#FFFFFF" offset="0%"></stop>
            <stop stop-color="#EEEEEE" offset="100%"></stop>
        </radialGradient>
        <linearGradient x1="50%" y1="100%" x2="50%" y2="3.061617e-15%" id="linearGradient-9">
            <stop stop-color="#F8F8F8" offset="0%"></stop>
            <stop stop-color="#DBDBDB" offset="100%"></stop>
        </linearGradient>
        <linearGradient x1="44.1513912%" y1="61.4404631%" x2="58.5302457%" y2="0%" id="linearGradient-10">
            <stop stop-color="#F9F9F9" offset="0%"></stop>
            <stop stop-color="#EBEBEB" offset="100%"></stop>
        </linearGradient>
        <linearGradient x1="25.4854702%" y1="75.5043118%" x2="68.2803632%" y2="42.8961155%" id="linearGradient-11">
            <stop stop-color="#DFDFDF" offset="0%"></stop>
            <stop stop-color="#F2F2F2" offset="100%"></stop>
        </linearGradient>
        <linearGradient x1="-23.7384972%" y1="47.5209693%" x2="111.667538%" y2="51.7758954%" id="linearGradient-12">
            <stop stop-color="#F2F2F2" offset="0%"></stop>
            <stop stop-color="#E1E1E1" offset="100%"></stop>
        </linearGradient>
        <linearGradient x1="0%" y1="72.9686969%" x2="139.91679%" y2="72.9686969%" id="linearGradient-13">
            <stop stop-color="#F3F3F3" offset="0%"></stop>
            <stop stop-color="#CCCCCC" offset="100%"></stop>
        </linearGradient>
        <linearGradient x1="0%" y1="72.9686969%" x2="116.666374%" y2="72.9686969%" id="linearGradient-14">
            <stop stop-color="#F2F2F2" offset="0%"></stop>
            <stop stop-color="#D7D5D5" offset="100%"></stop>
        </linearGradient>
        <radialGradient cx="40.7801012%" cy="41.6420104%" fx="40.7801012%" fy="41.6420104%" r="41.0607915%" id="radialGradient-15">
            <stop stop-color="#FDFDFD" offset="0%"></stop>
            <stop stop-color="#F0F0F0" offset="100%"></stop>
        </radialGradient>
        <radialGradient cx="40.7801012%" cy="41.6420104%" fx="40.7801012%" fy="41.6420104%" r="41.0607907%" id="radialGradient-16">
            <stop stop-color="#FDFDFD" offset="0%"></stop>
            <stop stop-color="#F0F0F0" offset="100%"></stop>
        </radialGradient>
    </defs>
    <g id="页面-1-" stroke="none" stroke-width="1" fill="none" fill-rule="evenodd">
        <g id="公共页面" transform="translate(-4832.000000, -746.000000)">
            <g id="Group-9" transform="translate(4817.000000, 746.000000)">
                <g id="编组-25" transform="translate(15.000000, 0.000000)">
                    <circle id="椭圆形" fill="url(#linearGradient-1)" cx="125" cy="126" r="125"></circle>
                    <g id="编组-23备份-3" opacity="0.281133743" transform="translate(20.000000, 58.000000)">
                        <polygon id="矩形" fill="url(#linearGradient-2)" points="21 30.6382979 42 20 42 59.3617021 21 70"></polygon>
                        <polygon id="矩形" fill="url(#linearGradient-3)" transform="translate(10.500000, 45.000000) scale(-1, 1) translate(-10.500000, -45.000000) " points="0 30.6382979 21 20 21 59.3617021 0 70"></polygon>
                        <polygon id="矩形备份-5" fill="url(#linearGradient-4)" transform="translate(21.000000, 19.742634) scale(-1, 1) rotate(-305.000000) translate(-21.000000, -19.742634) " points="13.1544262 13.6469218 33.0451052 2.54044128 29.7542967 25.8724587 8.95489484 36.9448271"></polygon>
                    </g>
                    <g id="编组-23备份-4" opacity="0.281133743" transform="translate(91.000000, 4.000000)">
                        <polygon id="矩形" fill="url(#linearGradient-5)" points="27 39.6170213 54 26 54 76.3829787 27 90"></polygon>
                        <polygon id="矩形" fill="url(#linearGradient-6)" transform="translate(13.500000, 58.000000) scale(-1, 1) translate(-13.500000, -58.000000) " points="0 39.6170213 27 26 27 76.3829787 0 90"></polygon>
                        <polygon id="矩形备份-5" fill="url(#linearGradient-7)" transform="translate(27.000000, 25.383387) scale(-1, 1) rotate(-305.000000) translate(-27.000000, -25.383387) " points="16.9128337 17.5460423 42.4865638 3.26628164 38.2555243 33.2645898 11.5134362 47.500492"></polygon>
                    </g>
                    <circle id="椭圆形" fill="url(#radialGradient-8)" cx="117" cy="17" r="17"></circle>
                    <g id="编组-23备份-5" opacity="0.281133743" transform="translate(198.000000, 64.000000)">
                        <polygon id="矩形" fill="url(#linearGradient-9)" points="19 27.787234 38 18 38 54.212766 19 64"></polygon>
                        <polygon id="矩形" fill="url(#linearGradient-10)" transform="translate(9.500000, 41.000000) scale(-1, 1) translate(-9.500000, -41.000000) " points="0 27.787234 19 18 19 54.212766 0 64"></polygon>
                        <polygon id="矩形备份-5" fill="url(#linearGradient-11)" transform="translate(19.000000, 18.050408) scale(-1, 1) rotate(-305.000000) translate(-19.000000, -18.050408) " points="11.8242093 12.4810339 29.8979523 2.48651957 27.0039284 23.6548194 8.10204771 33.6142973"></polygon>
                    </g>
                    <g id="路障" transform="translate(50.000000, 57.000000)">
                        <polygon id="路径" fill="url(#linearGradient-12)" fill-rule="nonzero" points="37.6003125 103.405312 112.792813 103.405312 112.792813 122.202812 37.6003125 122.202812"></polygon>
                        <path d="M18.8028125,131.602813 C18.8028125,136.792813 23.0103125,141.002813 28.2028125,141.002813 C33.3928125,141.002813 37.6028125,136.795313 37.6028125,131.602813 L37.6028125,14.1128125 L18.8053125,14.1128125 L18.8053125,131.602813 L18.8028125,131.602813 Z" id="路径" fill="url(#linearGradient-13)" fill-rule="nonzero"></path>
                        <path d="M112.792812,14.1128125 L112.792812,131.600313 C112.792812,136.790313 116.997812,141.000313 122.192812,141.000313 C127.382812,141.000313 131.592812,136.792813 131.592812,131.600313 L131.592812,14.1128125 L112.792812,14.1128125 L112.792812,14.1128125 Z" id="路径" fill="url(#linearGradient-14)" fill-rule="nonzero"></path>
                        <polygon id="路径-15" fill="#D8D8D8" points="18.8028125 73.4327396 37.6003125 73.4327396 37.6028125 81.5983684 18.8028125 81.5983684"></polygon>
                        <polygon id="路径-15备份" fill="#D8D8D8" points="113 73 131.7975 73 131.8 81.1656287 113 81.1656287"></polygon>
                        <path d="M142.032812,37.6103125 L8.3553125,37.6103125 C3.7403125,37.6103125 0.0003125,41.3928125 0.0003125,46.0603125 L0.0003125,66.7128125 C0.0003125,71.3803125 3.7403125,75.1628125 8.3553125,75.1628125 L142.032812,75.1628125 C146.645312,75.1628125 150.385312,71.3803125 150.385312,66.7128125 L150.385312,46.0603125 C150.385312,41.3928125 146.645312,37.6103125 142.032812,37.6103125 L142.032812,37.6103125 Z" id="路径" fill="#E6E6E6" fill-rule="nonzero"></path>
                        <path d="M142.0325,40 L8.355,40 C3.74,40 0,43.7825 0,48.45 L0,69.1025 C0,73.77 3.74,77.5525 8.355,77.5525 L142.0325,77.5525 C146.645,77.5525 150.385,73.77 150.385,69.1025 L150.385,48.45 C150.385,43.7825 146.645,40 142.0325,40 L142.0325,40 Z" id="路径" fill="#E6E6E6" fill-rule="nonzero"></path>
                        <path d="M23.5028125,37.6103125 L0.0053125,61.1078125 L0.0053125,66.8078125 C0.0553125,71.4303125 3.7753125,75.1603125 8.3578125,75.1603125 L14.1503125,75.1603125 L51.7003125,37.6103125 L23.5028125,37.6103125 L23.5028125,37.6103125 Z M142.032812,37.6103125 L136.290312,37.6103125 L98.7403125,75.1603125 L126.937812,75.1603125 L150.387812,51.7103125 L150.387812,46.0578125 C150.385312,41.3928125 146.645312,37.6103125 142.032812,37.6103125 L142.032812,37.6103125 Z M79.8953125,37.6103125 L42.3003125,75.2078125 L70.4978125,75.2078125 L108.092812,37.6128125 L79.8953125,37.6128125 L79.8953125,37.6103125 Z" id="形状" fill="#F4F4F4" fill-rule="nonzero"></path>
                        <g id="026-禁止" transform="translate(68.000000, 48.000000)" fill="#C60727" fill-rule="nonzero">
                            <path d="M13.7075641,13.5680769 C15.110641,12.1321795 15.9803846,10.1629487 15.9803846,7.99679487 C15.9803846,3.59884615 12.4029487,0.0132051282 7.99679487,0.0132051282 C5.83064103,0.0132051282 3.86141026,0.882948718 2.42551282,2.28602564 C2.40089744,2.3024359 2.37628205,2.32705128 2.35166667,2.35166667 C2.32705128,2.37628205 2.31064103,2.40089744 2.28602564,2.42551282 C0.882948718,3.86141026 0.0132051282,5.83064103 0.0132051282,7.99679487 C0.0132051282,12.3947436 3.59064103,15.9803846 7.99679487,15.9803846 C10.1629487,15.9803846 12.1321795,15.110641 13.5680769,13.7075641 C13.5926923,13.6911538 13.6173077,13.6665385 13.6419231,13.6419231 C13.6665385,13.6173077 13.6829487,13.5926923 13.7075641,13.5680769 L13.7075641,13.5680769 Z M14.0029487,7.99679487 C14.0029487,9.30141026 13.5844872,10.499359 12.8788462,11.4839744 L4.50961538,3.11474359 C5.49423077,2.40910256 6.70038462,1.99064103 7.99679487,1.99064103 C11.3116667,1.99064103 14.0029487,4.68192308 14.0029487,7.99679487 Z M1.99064103,7.99679487 C1.99064103,6.69217949 2.40910256,5.49423077 3.11474359,4.50961538 L11.4921795,12.8870513 C10.5075641,13.5926923 9.30141026,14.0111538 8.005,14.0111538 C4.68192308,14.0029487 1.99064103,11.3116667 1.99064103,7.99679487 Z" id="形状"></path>
                        </g>
                        <path d="M28.2003125,0.0153125 C20.4153125,0.0153125 14.1028125,6.3253125 14.1028125,14.1128125 C14.1028125,21.8953125 20.4153125,28.2103125 28.2003125,28.2103125 C35.9853125,28.2103125 42.2978132,21.8953125 42.2978132,14.1128125 C42.3003125,6.3253125 35.9878125,0.0153125 28.2003125,0.0153125 Z" id="路径" fill="url(#radialGradient-15)" fill-rule="nonzero"></path>
                        <path d="M122.192813,0.0153125 C114.407813,0.0153125 108.095313,6.3253125 108.095313,14.1128125 C108.095313,21.8953125 114.407813,28.2103125 122.192813,28.2103125 C129.977813,28.2103125 136.290313,21.8953125 136.290313,14.1128125 C136.290313,6.3253125 129.977813,0.0153125 122.192813,0.0153125 Z" id="路径" fill="url(#radialGradient-16)" fill-rule="nonzero"></path>
                    </g>
                </g>
            </g>
        </g>
    </g>
</svg>