<?xml version="1.0" encoding="UTF-8"?>
<svg width="170px" height="170px" viewBox="0 0 170 170" version="1.1" xmlns="http://www.w3.org/2000/svg" xmlns:xlink="http://www.w3.org/1999/xlink">
    <!-- Generator: Sketch 60.1 (88133) - https://sketch.com -->
    <title>操作系统</title>
    <desc>Created with Sketch.</desc>
    <g id="页面-1" stroke="none" stroke-width="1" fill="none" fill-rule="evenodd">
        <g id="操作系统" transform="translate(0.429688, 0.429688)" fill="#3D6072">
            <path d="M151.236979,0.125868125 L17.9036458,0.125868125 C8.08142354,0.125868125 0.125868125,8.08142354 0.125868125,17.9036458 L0.125868125,115.681424 C0.125868125,125.503646 8.08142375,133.459201 17.9036458,133.459201 L62.3480902,133.459201 L53.4592015,155.681424 L37.9036458,155.681424 C34.2147569,155.681424 31.2369792,158.659201 31.2369792,162.34809 C31.2369792,166.036979 34.2147569,169.014757 37.9036458,169.014757 L131.236979,169.014757 C134.925868,169.014757 137.903646,166.036979 137.903646,162.34809 C137.903646,158.659201 134.925868,155.681424 131.236979,155.681424 L115.681424,155.681424 L106.792535,133.459201 L151.236979,133.459201 C161.059201,133.459201 169.014757,125.503646 169.014757,115.681424 L169.014757,17.9036458 C169.014757,8.08142354 161.059201,0.125868125 151.236979,0.125868125 Z" id="路径" fill-rule="nonzero" opacity="0.400762649"></path>
            <path d="M94.5703125,91.686603 L98.6030543,85.0567839 C100.619425,86.7142387 102.887843,88.0678268 105.408306,89.1175481 C106.856117,89.7107366 108.370801,90.1305819 109.919936,90.3680977 C111.345505,90.5896196 112.786792,90.697978 114.229929,90.6921301 C115.509134,90.6989589 116.78677,90.6027834 118.050112,90.4045617 C119.406681,90.1835678 120.634427,89.8355023 121.733349,89.3603652 C122.463404,89.0473447 123.158571,88.6604687 123.807691,88.205948 C126.074988,86.6081616 127.249524,84.4714262 127.331299,81.7957417 C127.334519,81.6949439 127.3362,81.5941039 127.33634,81.4932562 C127.341227,80.6856503 127.245861,79.8804916 127.052368,79.0957479 C126.889967,78.4452312 126.646721,77.8169946 126.328154,77.2253102 C126.052045,76.7273238 125.712996,76.2659055 125.319129,75.8521089 C124.607798,75.0896797 123.651422,74.3377478 122.450001,73.596313 C122.440484,73.5905046 122.430962,73.5847035 122.421436,73.5789097 C120.675595,72.5054315 118.187337,71.3535005 114.956663,70.1231165 C114.603167,69.9885277 114.248896,69.8559292 113.893867,69.7253274 C109.861125,68.1783696 106.640533,66.6175997 104.23209,65.0430177 C103.306744,64.4450209 102.437875,63.766037 101.636012,63.0142931 C100.674315,62.102693 99.8980125,61.1317007 99.3071038,60.1013163 C99.2230148,59.9548159 99.1423388,59.8064348 99.0651393,59.6562897 C98.0289487,57.6397198 97.5108534,55.2502225 97.5108534,52.4877979 C97.5108534,49.7253733 98.2809951,47.225379 99.8212784,44.9878151 C101.361562,42.7502512 103.629979,40.9546752 106.62653,39.6010871 C108.21037,38.8980282 109.874835,38.387114 111.583442,38.0795437 C113.399296,37.7403179 115.373659,37.5707051 117.506532,37.5707051 C120.97917,37.5707051 124.101745,37.9160081 126.874255,38.6066143 C129.646765,39.2972204 132.349262,40.2778812 134.981746,41.5485965 L132.041205,48.2612883 C130.92854,47.6210727 129.769967,47.0618523 128.574728,46.5880877 C127.522556,46.1692933 126.450375,45.8011805 125.361977,45.4850515 C122.813508,44.7391969 120.139016,44.3662696 117.338501,44.3662696 C116.205642,44.3604121 115.073911,44.4376971 113.952678,44.5974845 C112.758538,44.7748322 111.674739,45.0530083 110.70128,45.432013 C109.962038,45.7163064 109.257496,46.0815772 108.600893,46.5209608 C107.916587,46.9718172 107.303885,47.5203295 106.782799,48.1485813 C105.873304,49.2579951 105.386929,50.6468344 105.408306,52.0734342 C105.403846,52.7770801 105.486227,53.4786458 105.653631,54.1626559 C105.802782,54.763705 106.031,55.3429269 106.332476,55.8855802 C106.923385,56.9457987 108.069076,57.980603 109.769548,58.9899929 C109.841805,59.0329925 109.914339,59.0755347 109.987148,59.1176169 C110.595049,59.4645136 111.216091,59.7885034 111.848931,60.0888854 C113.119805,60.6977238 114.654487,61.3468936 116.452978,62.0363948 C117.026353,62.2561003 117.601599,62.4710246 118.178655,62.6811447 C119.591177,63.1959718 120.986038,63.7567748 122.360945,64.3626325 C124.817557,65.4515803 126.882096,66.5761634 128.554564,67.7363817 C129.457008,68.3563508 130.310784,69.0425479 131.108634,69.7891394 C132.353183,70.9653798 133.308158,72.2010123 133.973561,73.496037 C134.745115,75.0186419 135.240174,76.6628469 135.43627,78.3540369 C135.526545,79.0932182 135.571156,79.8371315 135.569854,80.5816561 C135.580895,82.1183971 135.392286,83.6502012 135.008631,85.1396567 C134.576538,86.8034712 133.841503,88.375978 132.839352,89.78053 C131.019017,92.3219606 128.498554,94.2556579 125.277961,95.5816217 C123.281867,96.391158 121.190148,96.9488813 119.052416,97.2415626 C117.455003,97.4652004 115.843344,97.5751526 114.229929,97.5707051 C110.141177,97.5707051 106.416492,97.0318946 103.055873,95.954549 C101.508581,95.4649614 100.001211,94.8601855 98.546764,94.1454371 C97.1426728,93.4565585 95.8107627,92.6329735 94.5703125,91.686603 L94.5703125,91.686603 Z M54.7119636,96.9421329 C56.7898337,97.3706832 58.9070681,97.5812219 61.028993,97.5707051 C62.4650993,97.5735591 63.8997884,97.4802543 65.323275,97.2910232 C67.8390475,96.9679114 70.2908692,96.2656972 72.5946818,95.2084551 C75.9784084,93.6338912 78.8628968,91.4792247 81.2481467,88.7444557 C83.6333967,86.0096867 85.4500696,82.8191229 86.6981655,79.1727642 C87.9462614,75.5264055 88.5703125,71.6314315 88.5703125,67.4878421 C88.5703125,66.7199797 88.5486931,65.9522681 88.5045763,65.1856639 C88.336646,62.0174825 87.7287275,58.8877602 86.6981655,55.8857918 C85.4500696,52.294681 83.6333967,49.1179292 81.2481467,46.3555362 C78.8628968,43.5931433 75.9645407,41.4384768 72.5530786,39.8915368 C70.9799758,39.1813998 69.3369566,38.6362069 67.6505578,38.2647636 C65.4756493,37.7920228 63.2550615,37.5594068 61.028993,37.5707051 C59.2938846,37.5653751 57.5610623,37.6970033 55.8468988,37.9647677 C52.4523459,38.4717156 49.2012924,39.6783373 46.3014613,41.5075367 C42.1966125,44.1318099 39.0486373,47.6952968 36.8575356,52.1979973 C35.8181375,54.3430086 35.0264949,56.5985686 34.4978022,58.9213854 C33.8660629,61.7330182 33.5551199,64.6067097 33.570883,67.4878421 C33.5703125,68.0017846 33.5804875,68.5156826 33.6000052,69.0292574 C33.7147558,72.4818124 34.3356615,75.8991144 35.4430269,79.1727642 C35.5591887,79.5123053 35.6809639,79.8499156 35.8083029,80.1854575 C36.9732629,83.3105241 38.6802389,86.2075298 40.8514425,88.7444557 C43.208957,91.4792247 46.0795776,93.6338912 49.4633042,95.2084551 C51.1407564,95.9837982 52.9017577,96.5654722 54.7119636,96.9421329 L54.7119636,96.9421329 Z M61.0285511,90.5702196 C62.6990071,90.5811897 64.3653612,90.4062116 65.995814,90.0486246 C68.081423,89.5957379 70.0548299,88.7399801 71.8015322,87.5310045 C74.4489266,85.6653718 76.5570948,83.1541577 77.9187482,80.2442809 C78.0726454,79.9249165 78.2188315,79.602012 78.3571835,79.2758391 C79.3382969,76.9287166 79.9906421,74.4613617 80.2963201,71.9414738 C80.4818238,70.4642467 80.5733079,68.9770625 80.5703125,67.4886129 C80.5703125,64.5315388 80.1248432,61.6839859 79.234054,58.9459542 C78.4534393,56.5017551 77.286716,54.1935754 75.7766787,52.1060774 C75.6510219,51.9337718 75.5229588,51.7631762 75.3925259,51.5943393 C73.7222963,49.4312943 71.676265,47.7200245 69.254432,46.46053 C67.3285587,45.4709684 65.2242541,44.8620648 63.0603854,44.6682145 C62.3851523,44.6028944 61.7070416,44.5707051 61.0285511,44.5712882 C59.1975805,44.5574612 57.3732641,44.7896 55.6061506,45.2612721 C53.7951764,45.7522179 52.0839553,46.5469635 50.5478602,47.6105033 C47.8051531,49.5237134 45.6172332,52.1074884 44.2001525,55.1066863 C44.0848837,55.3440834 43.9737969,55.5834231 43.8669417,55.8245982 C42.8146874,58.2287318 42.1243069,60.7708817 41.8175699,63.3708871 C41.650242,64.7372521 41.5676912,66.112374 41.5703125,67.4886129 C41.5703125,70.4456871 42.0018519,73.3069301 42.8648039,76.0723421 C43.6330184,78.5829734 44.8120636,80.9536908 46.3555838,83.0912862 C46.4570021,83.2306881 46.5600061,83.3689674 46.6645763,83.506098 C48.3348059,85.6965233 50.3808372,87.4214832 52.8026702,88.6809778 C54.7286039,89.6702537 56.8329056,90.2788775 58.9967167,90.4724718 C59.671936,90.5380662 60.3500467,90.5707051 61.0285511,90.5702196 Z" id="形状" stroke="#3D6072" stroke-width="0.25" stroke-linecap="round"></path>
        </g>
    </g>
</svg>