<?xml version="1.0" encoding="UTF-8"?>
<svg width="200px" height="200px" viewBox="0 0 200 200" version="1.1" xmlns="http://www.w3.org/2000/svg" xmlns:xlink="http://www.w3.org/1999/xlink">
    <!-- Generator: Sketch 60.1 (88133) - https://sketch.com -->
    <title>编组</title>
    <desc>Created with Sketch.</desc>
    <g id="页面-1" stroke="none" stroke-width="1" fill="none" fill-rule="evenodd">
        <g id="编组">
            <rect id="矩形" fill="#E5E5E5" x="0" y="0" width="200" height="200"></rect>
            <path d="M58.3333334,137.777778 C58.3333334,122.5 67.5,108.611111 81.9444445,102.222222 C87.2222223,105.555556 93.6111111,107.222222 100,107.222222 C106.388889,107.222222 112.5,105.277778 118.055555,102.222222 C132.5,108.611111 141.667357,122.5 141.667357,137.777778 C141.944444,153.888889 58.3333334,154.166667 58.3333334,137.777778 Z M119.722222,95.2777777 C117.222222,97.7777777 114.166667,99.7222223 110.833333,100.833333 C107.5,102.222222 103.611111,102.777778 100,102.777778 C96.3888889,102.777778 92.5,102.222222 89.1666666,100.833333 C85.8333332,99.4444445 82.7777777,97.5 80.2777777,95.2777777 C77.7777777,92.7777777 75.5555555,90 74.1666666,86.6666666 C72.7777777,83.6111111 71.9444445,80 71.9444445,76.3888889 C71.9444445,73.0555555 72.5,69.4444443 74.1666666,66.1111111 C75.5555555,63.0555557 77.7777777,60 80.2777777,57.5 C83.0555555,55 86.1111111,53.0555555 89.1666666,51.9444445 C92.7777777,50.5555557 96.3888889,50 100,50 C103.611111,50 107.5,50.5555555 110.833333,51.9444445 C114.166667,53.3333336 117.5,55.2777779 119.722222,57.5 C122.5,60 124.444445,62.7777777 125.833333,66.1111111 C127.222222,69.1666666 128.055555,72.7777777 128.055555,76.3888889 C128.055555,79.7222223 127.5,83.3333334 125.833333,86.6666666 C124.444445,89.7222221 122.5,92.5 119.722222,95.2777777 Z" id="形状" fill="#CECECE" fill-rule="nonzero"></path>
        </g>
    </g>
</svg>