<?xml version="1.0" encoding="UTF-8"?>
<svg width="200px" height="200px" viewBox="0 0 200 200" version="1.1" xmlns="http://www.w3.org/2000/svg" xmlns:xlink="http://www.w3.org/1999/xlink">
    <!-- Generator: Sketch 60.1 (88133) - https://sketch.com -->
    <title>startup</title>
    <desc>Created with Sketch.</desc>
    <g id="页面-1" stroke="none" stroke-width="1" fill="none" fill-rule="evenodd">
        <g id="startup" fill="#3D6072" fill-rule="nonzero">
            <path d="M33.7081004,188.077905 C32.2164875,184.485429 33.0466109,180.347576 35.8084572,177.608416 L49.3084371,164.108437 C53.1072001,160.855259 58.7698565,161.073983 62.3063634,164.61049 C65.8428703,168.146997 66.0615943,173.809653 62.8084172,177.608416 L49.4041818,191.491374 C47.5513477,193.178849 45.1107412,194.072593 42.6063195,193.980732 C38.7165534,194.003353 35.1997132,191.670381 33.7081004,188.077905 Z M199.915063,9.57675176 L199.915063,37.6299014 C199.99807,65.5804672 188.896748,92.402916 169.084854,112.119152 L145.244464,135.959542 L139.595537,175.502037 C138.840533,180.616041 136.456625,185.350282 132.797675,189.002016 L125.999812,195.799879 C120.392676,201.400041 111.309106,201.400041 105.70197,195.799879 L48.2552473,138.353156 L27.8616605,158.555253 C24.1073049,162.283169 18.041725,162.261736 14.3138086,158.507381 C10.5858921,154.753025 10.6073252,148.687445 14.3616807,144.959529 L34.6595229,124.470198 L4.21275977,94.2149234 C-1.38740293,88.6077873 -1.38740293,79.5242176 4.21275977,73.9170814 L11.0106219,67.0234746 C14.675502,63.3995943 19.4083474,61.0499548 24.5106018,60.321357 L64.0530961,54.6724293 L87.8934861,30.8320393 C107.703099,10.9253326 134.682569,-0.183861295 162.765715,0.00229785156 L190.818865,0.00229785156 C195.918859,0.257612884 199.920983,4.47037481 199.915063,9.57675176 Z" id="形状" opacity="0.403390067"></path>
            <g id="路径" transform="translate(99.963851, 48.000000)">
                <path d="M36.0241216,3.33190264 C32.4876149,6.86840926 32.2688908,12.5310652 35.5220673,16.3298282 C37.3346325,18.1275909 38.3541746,20.5747817 38.3541746,23.1276905 C38.3541746,25.6805992 37.3346325,28.12779 35.5220673,29.9255527 C31.7876717,33.6377943 25.756483,33.6377943 22.0220874,29.9255527 C20.2095222,28.12779 19.18998,25.6805992 19.18998,23.1276905 C19.18998,20.5747817 20.2095222,18.1275909 22.0220874,16.3298282 C25.7500039,12.5754726 25.7285708,6.50989261 21.9742151,2.7819761 C18.2198595,-0.945940406 12.1542795,-0.924507263 8.42636299,2.82984837 C0.204127687,11.0418579 -2.25987427,23.399091 2.18386081,34.1366639 C6.62759589,44.8742368 17.1034369,51.8763274 28.7242051,51.8763274 C40.3449733,51.8763274 50.8208143,44.8742368 55.2645493,34.1366639 C59.7082844,23.399091 57.2442825,11.0418579 49.0220472,2.82984837 C45.2232841,-0.423328164 39.5606282,-0.204603985 36.0241216,3.33190264 Z"></path>
            </g>
        </g>
    </g>
</svg>