<?xml version="1.0" standalone="no"?><!DOCTYPE svg PUBLIC "-//W3C//DTD SVG 1.1//EN" "http://www.w3.org/Graphics/SVG/1.1/DTD/svg11.dtd"><svg t="1653755502091" class="icon" viewBox="0 0 1024 1024" version="1.1" xmlns="http://www.w3.org/2000/svg" p-id="1594" xmlns:xlink="http://www.w3.org/1999/xlink" width="200" height="200"><defs><style type="text/css"></style></defs><path d="M512 512m-512 0a512 512 0 1 0 1024 0 512 512 0 1 0-1024 0Z" fill="#FCD063" p-id="1595"></path><path d="M840.512 119.488C915.008 208.416 960 322.912 960 448c0 282.752-229.248 512-512 512-125.088 0-239.552-44.992-328.512-119.488C213.408 952.64 354.304 1024 512 1024c282.752 0 512-229.248 512-512 0-157.696-71.36-298.592-183.488-392.512z" fill="#F7B84E" p-id="1596"></path><path d="M320 448m-64 0a64 64 0 1 0 128 0 64 64 0 1 0-128 0Z" fill="#C98E3F" p-id="1597"></path><path d="M320 416c29.792 0 54.592 20.448 61.76 48 1.312-5.152 2.24-10.432 2.24-16 0-35.328-28.672-64-64-64s-64 28.672-64 64c0 5.568 0.928 10.848 2.24 16 7.168-27.552 31.968-48 61.76-48z" fill="#AB7934" p-id="1598"></path><path d="M704 448m-64 0a64 64 0 1 0 128 0 64 64 0 1 0-128 0Z" fill="#C98E3F" p-id="1599"></path><path d="M816 560m-48 0a48 48 0 1 0 96 0 48 48 0 1 0-96 0Z" fill="#F7B84E" p-id="1600"></path><path d="M208 560m-48 0a48 48 0 1 0 96 0 48 48 0 1 0-96 0Z" fill="#F7B84E" p-id="1601"></path><path d="M704 416c29.792 0 54.592 20.448 61.76 48 1.312-5.152 2.24-10.432 2.24-16 0-35.328-28.672-64-64-64s-64 28.672-64 64c0 5.568 0.928 10.848 2.24 16 7.168-27.552 31.968-48 61.76-48z" fill="#AB7934" p-id="1602"></path><path d="M557.248 672l41.376-41.376c12.512-12.512 12.512-32.736 0-45.248s-32.736-12.512-45.248 0L512 626.752l-41.376-41.376c-12.512-12.512-32.736-12.512-45.248 0s-12.512 32.736 0 45.248L466.752 672l-41.376 41.376c-12.512 12.512-12.512 32.736 0 45.248 6.24 6.24 14.432 9.376 22.624 9.376s16.384-3.136 22.624-9.376L512 717.248l41.376 41.376c6.24 6.24 14.432 9.376 22.624 9.376s16.384-3.136 22.624-9.376c12.512-12.512 12.512-32.736 0-45.248L557.248 672z" fill="#C98E3F" p-id="1603"></path><path d="M425.376 617.376c12.512-12.512 32.736-12.512 45.248 0L512 658.752l41.376-41.376c12.512-12.512 32.736-12.512 45.248 0 1.952 1.952 3.072 4.352 4.416 6.624 7.232-12.256 6.144-28.064-4.416-38.624-12.512-12.512-32.736-12.512-45.248 0L512 626.752l-41.376-41.376c-12.512-12.512-32.736-12.512-45.248 0-10.56 10.56-11.616 26.368-4.416 38.624 1.344-2.272 2.464-4.672 4.416-6.624zM425.376 745.376L466.752 704v-32l-41.376 41.376c-10.56 10.56-11.616 26.368-4.416 38.624 1.344-2.272 2.464-4.672 4.416-6.624zM557.248 672v32l41.376 41.376c1.952 1.952 3.072 4.352 4.416 6.624 7.232-12.256 6.144-28.064-4.416-38.624L557.248 672z" fill="#AB7934" p-id="1604"></path></svg>