<?xml version="1.0" standalone="no"?><!DOCTYPE svg PUBLIC "-//W3C//DTD SVG 1.1//EN" "http://www.w3.org/Graphics/SVG/1.1/DTD/svg11.dtd"><svg t="1653669311898" class="icon" viewBox="0 0 1024 1024" version="1.1" xmlns="http://www.w3.org/2000/svg" p-id="6231" xmlns:xlink="http://www.w3.org/1999/xlink" width="200" height="200"><defs><style type="text/css"></style></defs><path d="M512 512m-512 0a512 512 0 1 0 1024 0 512 512 0 1 0-1024 0Z" fill="#FCD063" p-id="6232"></path><path d="M840.512 119.488C915.008 208.416 960 322.912 960 448c0 282.752-229.248 512-512 512-125.088 0-239.584-44.992-328.512-119.488C213.408 952.64 354.304 1024 512 1024c282.752 0 512-229.248 512-512 0-157.696-71.36-298.592-183.488-392.512z" fill="#F7B84E" p-id="6233"></path><path d="M651.552 736c-9.216 0-18.528-2.24-27.008-6.944-59.968-33.184-165.184-33.184-225.152 0-24.736 13.728-56.96 6.432-71.904-16.288s-6.976-52.256 17.76-65.984c93.472-51.744 239.936-51.744 333.408 0 24.736 13.728 32.704 43.264 17.76 65.984-9.792 14.944-27.104 23.232-44.864 23.232z" fill="#C98E3F" p-id="6234"></path><path d="M320 384m-64 0a64 64 0 1 0 128 0 64 64 0 1 0-128 0Z" fill="#C98E3F" p-id="6235"></path><path d="M704 384m-64 0a64 64 0 1 0 128 0 64 64 0 1 0-128 0Z" fill="#C98E3F" p-id="6236"></path><path d="M345.28 678.816c93.472-51.744 239.936-51.744 333.408 0 10.88 6.048 18.304 15.2 22.176 25.44 8.32-21.12-0.448-45.376-22.176-57.44-93.472-51.744-239.936-51.744-333.408 0-21.76 12.064-30.496 36.32-22.176 57.44 3.872-10.24 11.296-19.392 22.176-25.44zM320 352c29.792 0 54.592 20.448 61.728 48 1.344-5.152 2.272-10.432 2.272-16 0-35.328-28.672-64-64-64s-64 28.672-64 64c0 5.568 0.928 10.848 2.272 16 7.136-27.552 31.936-48 61.728-48zM704 352c29.792 0 54.592 20.448 61.76 48 1.312-5.152 2.24-10.432 2.24-16 0-35.328-28.672-64-64-64s-64 28.672-64 64c0 5.568 0.928 10.848 2.24 16 7.168-27.552 31.968-48 61.76-48z" fill="#AB7934" p-id="6237"></path><path d="M780.896 486.528c-6.016-8.224-19.776-8.224-25.824 0-5.856 8-35.104 49.184-35.104 74.912C720 587.136 741.536 608 768 608s48-20.864 48-46.56c0-25.728-29.248-66.912-35.104-74.912zM284.896 486.528c-6.016-8.224-19.776-8.224-25.824 0-5.824 8-35.072 49.184-35.072 74.912 0 25.696 21.536 46.56 48 46.56s48-20.864 48-46.56c0-25.728-29.248-66.912-35.104-74.912z" fill="#50BEE8" p-id="6238"></path></svg>